<svg width="2207" height="2207" viewBox="0 0 2207 2207" fill="none" xmlns="http://www.w3.org/2000/svg">
<mask id="path-1-outside-1_106_92" maskUnits="userSpaceOnUse" x="1189.36" y="976.476" width="878" height="320" fill="black">
<rect fill="white" x="1189.36" y="976.476" width="878" height="320"/>
<path d="M1316.67 1285.69C1298.82 1285.69 1282.67 1282.71 1268.22 1276.76C1253.77 1270.53 1241.44 1262.17 1231.24 1251.69C1221.04 1240.92 1213.11 1228.74 1207.44 1215.14C1202.06 1201.25 1199.36 1186.66 1199.36 1171.36C1199.36 1150.11 1204.04 1130.7 1213.39 1113.13C1223.02 1095.56 1236.62 1081.54 1254.19 1071.05C1272.04 1060.29 1293.01 1054.9 1317.09 1054.9C1341.46 1054.9 1362.29 1060.29 1379.57 1071.05C1396.86 1081.54 1410.03 1095.56 1419.1 1113.13C1428.45 1130.42 1433.12 1149.12 1433.12 1169.23C1433.12 1172.63 1432.98 1176.18 1432.7 1179.86C1432.58 1181.34 1432.45 1182.71 1432.33 1183.97C1432.09 1186.48 1429.96 1188.36 1427.44 1188.36H1265.24C1262.28 1188.36 1259.96 1190.92 1260.45 1193.84C1261.98 1202.92 1264.99 1211.01 1269.49 1218.11C1275.16 1226.61 1282.24 1233.13 1290.74 1237.66C1299.53 1241.91 1308.88 1244.04 1318.79 1244.04C1330.13 1244.04 1340.75 1241.35 1350.67 1235.96C1359.32 1231.16 1365.62 1225.13 1369.59 1217.89C1370.81 1215.66 1373.34 1214.38 1375.79 1215.06L1414.65 1225.87C1417.64 1226.7 1419.16 1230.03 1417.64 1232.74C1412.47 1241.94 1405.59 1250.24 1397 1257.64C1387.08 1266.42 1375.32 1273.36 1361.72 1278.46C1348.12 1283.28 1333.1 1285.69 1316.67 1285.69ZM1259.16 1146.76C1258.68 1149.67 1261.01 1152.23 1263.97 1152.23H1369.37C1372.33 1152.23 1374.66 1149.67 1374.16 1146.76C1372.63 1137.72 1369.62 1129.77 1365.12 1122.91C1360.02 1114.41 1353.22 1107.89 1344.72 1103.36C1336.22 1098.54 1326.73 1096.13 1316.24 1096.13C1306.04 1096.13 1296.69 1098.54 1288.19 1103.36C1279.98 1107.89 1273.18 1114.41 1267.79 1122.91C1263.53 1129.77 1260.66 1137.72 1259.16 1146.76Z"/>
<path d="M1549.85 1285.69C1530.87 1285.69 1512.73 1282.57 1495.45 1276.34C1479.42 1270.56 1465.47 1262.22 1453.58 1251.33C1451.93 1249.81 1451.57 1247.35 1452.66 1245.38L1468.34 1216.96C1469.84 1214.24 1473.44 1213.54 1475.91 1215.42C1487.6 1224.33 1499.07 1231.04 1510.32 1235.54C1523.36 1240.64 1535.82 1243.19 1547.72 1243.19C1558.77 1243.19 1567.56 1241.2 1574.08 1237.24C1580.88 1233.27 1584.28 1227.32 1584.28 1219.39C1584.28 1214 1582.43 1209.89 1578.75 1207.06C1575.07 1203.94 1569.68 1201.25 1562.6 1198.99C1555.8 1196.72 1547.44 1194.17 1537.52 1191.34C1521.09 1185.95 1507.35 1180.71 1496.3 1175.61C1485.25 1170.51 1476.89 1164.13 1471.22 1156.48C1465.84 1148.55 1463.15 1138.49 1463.15 1126.31C1463.15 1111.57 1466.83 1098.96 1474.2 1088.48C1481.85 1077.71 1492.33 1069.35 1505.65 1063.4C1519.25 1057.45 1535.12 1054.48 1553.25 1054.48C1569.12 1054.48 1584.13 1057.03 1598.3 1062.13C1611.25 1066.53 1623.13 1073.54 1633.95 1083.15C1635.74 1084.73 1636.05 1087.38 1634.77 1089.4L1616.97 1117.42C1615.39 1119.91 1612.02 1120.49 1609.64 1118.76C1599.91 1111.66 1590.6 1106.38 1581.73 1102.93C1571.53 1098.68 1561.18 1096.56 1550.7 1096.56C1544.75 1096.56 1539.08 1097.26 1533.7 1098.68C1528.6 1100.1 1524.35 1102.51 1520.95 1105.91C1517.83 1109.02 1516.27 1113.56 1516.27 1119.51C1516.27 1124.89 1517.69 1129.14 1520.52 1132.26C1523.64 1135.09 1528.17 1137.64 1534.12 1139.91C1540.36 1142.17 1547.87 1144.72 1556.65 1147.56C1574.5 1152.66 1589.52 1157.9 1601.7 1163.28C1614.17 1168.67 1623.52 1175.33 1629.75 1183.26C1635.99 1190.91 1639.1 1201.54 1639.1 1215.14C1639.1 1237.24 1631.03 1254.52 1614.88 1266.99C1598.73 1279.46 1577.05 1285.69 1549.85 1285.69Z"/>
<path d="M1808.98 1265.76C1809.59 1268.17 1808.34 1270.67 1806.03 1271.59C1802.1 1273.16 1797.63 1274.89 1792.63 1276.76C1785.83 1279.31 1779.31 1281.05 1770.52 1282.71C1761.5 1284.42 1756.32 1285.8 1747.15 1285.26C1735.45 1284.58 1729.13 1282.63 1719.51 1275.95C1710.06 1269.38 1704.48 1263.85 1699.53 1253.46C1694.23 1242.37 1693.22 1223.19 1693.14 1221.68C1693.14 1221.61 1693.14 1221.55 1693.14 1221.48V1102.51V1058.73V991.476C1693.14 988.714 1695.38 986.476 1698.14 986.476H1741.3C1744.06 986.476 1746.3 988.714 1746.3 991.476V1053.73C1746.3 1056.49 1748.54 1058.73 1751.3 1058.73H1788.05C1790.81 1058.73 1793.05 1060.97 1793.05 1063.73V1097.51C1793.05 1100.27 1790.81 1102.51 1788.05 1102.51H1751.3C1748.54 1102.51 1746.3 1104.74 1746.3 1107.51V1211.31C1746.58 1218.96 1748.71 1224.49 1752.67 1227.89C1756.64 1231.29 1761.6 1232.99 1767.55 1232.99C1773.5 1232.99 1779.31 1232 1784.98 1230.01C1788.05 1228.94 1790.79 1227.94 1793.2 1227.04C1796.05 1225.96 1799.25 1227.56 1800 1230.52L1808.98 1265.76Z"/>
<path d="M1940.5 1285.69C1922.65 1285.69 1906.5 1282.71 1892.05 1276.76C1877.6 1270.53 1865.27 1262.17 1855.07 1251.69C1844.87 1240.92 1836.94 1228.74 1831.27 1215.14C1825.89 1201.25 1823.2 1186.66 1823.2 1171.36C1823.2 1150.11 1827.87 1130.7 1837.22 1113.13C1846.86 1095.56 1860.46 1081.54 1878.02 1071.05C1895.88 1060.29 1916.84 1054.9 1940.93 1054.9C1965.3 1054.9 1986.12 1060.29 2003.41 1071.05C2020.69 1081.54 2033.87 1095.56 2042.93 1113.13C2052.28 1130.42 2056.96 1149.12 2056.96 1169.23C2056.96 1172.63 2056.82 1176.18 2056.53 1179.86C2056.41 1181.34 2056.29 1182.71 2056.16 1183.97C2055.92 1186.48 2053.79 1188.36 2051.27 1188.36H1889.08C1886.12 1188.36 1883.79 1190.92 1884.28 1193.84C1885.81 1202.92 1888.83 1211.01 1893.33 1218.11C1898.99 1226.61 1906.08 1233.13 1914.58 1237.66C1923.36 1241.91 1932.71 1244.04 1942.63 1244.04C1953.96 1244.04 1964.59 1241.35 1974.5 1235.96C1983.15 1231.16 1989.46 1225.13 1993.42 1217.89C1994.64 1215.66 1997.18 1214.38 1999.63 1215.06L2038.48 1225.87C2041.47 1226.7 2043 1230.03 2041.48 1232.74C2036.3 1241.94 2029.42 1250.24 2020.83 1257.64C2010.91 1266.42 1999.16 1273.36 1985.55 1278.46C1971.95 1283.28 1956.94 1285.69 1940.5 1285.69ZM1883 1146.76C1882.52 1149.67 1884.84 1152.23 1887.8 1152.23H1993.21C1996.16 1152.23 1998.49 1149.67 1998 1146.76C1996.47 1137.72 1993.45 1129.77 1988.96 1122.91C1983.85 1114.41 1977.05 1107.89 1968.55 1103.36C1960.05 1098.54 1950.56 1096.13 1940.08 1096.13C1929.88 1096.13 1920.53 1098.54 1912.03 1103.36C1903.81 1107.89 1897.01 1114.41 1891.63 1122.91C1887.37 1129.77 1884.49 1137.72 1883 1146.76Z"/>
</mask>
<path d="M1316.67 1285.69C1298.82 1285.69 1282.67 1282.71 1268.22 1276.76C1253.77 1270.53 1241.44 1262.17 1231.24 1251.69C1221.04 1240.92 1213.11 1228.74 1207.44 1215.14C1202.06 1201.25 1199.36 1186.66 1199.36 1171.36C1199.36 1150.11 1204.04 1130.7 1213.39 1113.13C1223.02 1095.56 1236.62 1081.54 1254.19 1071.05C1272.04 1060.29 1293.01 1054.9 1317.09 1054.9C1341.46 1054.9 1362.29 1060.29 1379.57 1071.05C1396.86 1081.54 1410.03 1095.56 1419.1 1113.13C1428.45 1130.42 1433.12 1149.12 1433.12 1169.23C1433.12 1172.63 1432.98 1176.18 1432.7 1179.86C1432.58 1181.34 1432.45 1182.71 1432.33 1183.97C1432.09 1186.48 1429.96 1188.36 1427.44 1188.36H1265.24C1262.28 1188.36 1259.96 1190.92 1260.45 1193.84C1261.98 1202.92 1264.99 1211.01 1269.49 1218.11C1275.16 1226.61 1282.24 1233.13 1290.74 1237.66C1299.53 1241.91 1308.88 1244.04 1318.79 1244.04C1330.13 1244.04 1340.75 1241.35 1350.67 1235.96C1359.32 1231.16 1365.62 1225.13 1369.59 1217.89C1370.81 1215.66 1373.34 1214.38 1375.79 1215.06L1414.65 1225.87C1417.64 1226.7 1419.16 1230.03 1417.64 1232.74C1412.47 1241.94 1405.59 1250.24 1397 1257.64C1387.08 1266.42 1375.32 1273.36 1361.72 1278.46C1348.12 1283.28 1333.1 1285.69 1316.67 1285.69ZM1259.16 1146.76C1258.68 1149.67 1261.01 1152.23 1263.97 1152.23H1369.37C1372.33 1152.23 1374.66 1149.67 1374.16 1146.76C1372.63 1137.72 1369.62 1129.77 1365.12 1122.91C1360.02 1114.41 1353.22 1107.89 1344.72 1103.36C1336.22 1098.54 1326.73 1096.13 1316.24 1096.13C1306.04 1096.13 1296.69 1098.54 1288.19 1103.36C1279.98 1107.89 1273.18 1114.41 1267.79 1122.91C1263.53 1129.77 1260.66 1137.72 1259.16 1146.76Z" fill="#E7B10A"/>
<path d="M1549.85 1285.69C1530.87 1285.69 1512.73 1282.57 1495.45 1276.34C1479.42 1270.56 1465.47 1262.22 1453.58 1251.33C1451.93 1249.81 1451.57 1247.35 1452.66 1245.38L1468.34 1216.96C1469.84 1214.24 1473.44 1213.54 1475.91 1215.42C1487.6 1224.33 1499.07 1231.04 1510.32 1235.54C1523.36 1240.64 1535.82 1243.19 1547.72 1243.19C1558.77 1243.19 1567.56 1241.2 1574.08 1237.24C1580.88 1233.27 1584.28 1227.32 1584.28 1219.39C1584.28 1214 1582.43 1209.89 1578.75 1207.06C1575.07 1203.94 1569.68 1201.25 1562.6 1198.99C1555.8 1196.72 1547.44 1194.17 1537.52 1191.34C1521.09 1185.95 1507.35 1180.71 1496.3 1175.61C1485.25 1170.51 1476.89 1164.13 1471.22 1156.48C1465.84 1148.55 1463.15 1138.49 1463.15 1126.31C1463.15 1111.57 1466.83 1098.96 1474.2 1088.48C1481.85 1077.71 1492.33 1069.35 1505.65 1063.4C1519.25 1057.45 1535.12 1054.48 1553.25 1054.48C1569.12 1054.48 1584.13 1057.03 1598.3 1062.13C1611.25 1066.53 1623.13 1073.54 1633.95 1083.15C1635.74 1084.73 1636.05 1087.38 1634.77 1089.4L1616.97 1117.42C1615.39 1119.91 1612.02 1120.49 1609.64 1118.76C1599.91 1111.66 1590.6 1106.38 1581.73 1102.93C1571.53 1098.68 1561.18 1096.56 1550.7 1096.56C1544.75 1096.56 1539.08 1097.26 1533.7 1098.68C1528.6 1100.1 1524.35 1102.51 1520.95 1105.91C1517.83 1109.02 1516.27 1113.56 1516.27 1119.51C1516.27 1124.89 1517.69 1129.14 1520.52 1132.26C1523.64 1135.09 1528.17 1137.64 1534.12 1139.91C1540.36 1142.17 1547.87 1144.72 1556.65 1147.56C1574.5 1152.66 1589.52 1157.9 1601.7 1163.28C1614.17 1168.67 1623.52 1175.33 1629.75 1183.26C1635.99 1190.91 1639.1 1201.54 1639.1 1215.14C1639.1 1237.24 1631.03 1254.52 1614.88 1266.99C1598.73 1279.46 1577.05 1285.69 1549.85 1285.69Z" fill="#E7B10A"/>
<path d="M1808.98 1265.76C1809.59 1268.17 1808.34 1270.67 1806.03 1271.59C1802.1 1273.16 1797.63 1274.89 1792.63 1276.76C1785.83 1279.31 1779.31 1281.05 1770.52 1282.71C1761.5 1284.42 1756.32 1285.8 1747.15 1285.26C1735.45 1284.58 1729.13 1282.63 1719.51 1275.95C1710.06 1269.38 1704.48 1263.85 1699.53 1253.46C1694.23 1242.37 1693.22 1223.19 1693.14 1221.68C1693.14 1221.61 1693.14 1221.55 1693.14 1221.48V1102.51V1058.73V991.476C1693.14 988.714 1695.38 986.476 1698.14 986.476H1741.3C1744.06 986.476 1746.3 988.714 1746.3 991.476V1053.73C1746.3 1056.49 1748.54 1058.73 1751.3 1058.73H1788.05C1790.81 1058.73 1793.05 1060.97 1793.05 1063.73V1097.51C1793.05 1100.27 1790.81 1102.51 1788.05 1102.51H1751.3C1748.54 1102.51 1746.3 1104.74 1746.3 1107.51V1211.31C1746.58 1218.96 1748.71 1224.49 1752.67 1227.89C1756.64 1231.29 1761.6 1232.99 1767.55 1232.99C1773.5 1232.99 1779.31 1232 1784.98 1230.01C1788.05 1228.94 1790.79 1227.94 1793.2 1227.04C1796.05 1225.96 1799.25 1227.56 1800 1230.52L1808.98 1265.76Z" fill="#E7B10A"/>
<path d="M1940.5 1285.69C1922.65 1285.69 1906.5 1282.71 1892.05 1276.76C1877.6 1270.53 1865.27 1262.17 1855.07 1251.69C1844.87 1240.92 1836.94 1228.74 1831.27 1215.14C1825.89 1201.25 1823.2 1186.66 1823.2 1171.36C1823.2 1150.11 1827.87 1130.7 1837.22 1113.13C1846.86 1095.56 1860.46 1081.54 1878.02 1071.05C1895.88 1060.29 1916.84 1054.9 1940.93 1054.9C1965.3 1054.9 1986.12 1060.29 2003.41 1071.05C2020.69 1081.54 2033.87 1095.56 2042.93 1113.13C2052.28 1130.42 2056.96 1149.12 2056.96 1169.23C2056.96 1172.63 2056.82 1176.18 2056.53 1179.86C2056.41 1181.34 2056.29 1182.71 2056.16 1183.97C2055.92 1186.48 2053.79 1188.36 2051.27 1188.36H1889.08C1886.12 1188.36 1883.79 1190.92 1884.28 1193.84C1885.81 1202.92 1888.83 1211.01 1893.33 1218.11C1898.99 1226.61 1906.08 1233.13 1914.58 1237.66C1923.36 1241.91 1932.71 1244.04 1942.63 1244.04C1953.96 1244.04 1964.59 1241.35 1974.5 1235.96C1983.15 1231.16 1989.46 1225.13 1993.42 1217.89C1994.64 1215.66 1997.18 1214.38 1999.63 1215.06L2038.48 1225.87C2041.47 1226.7 2043 1230.03 2041.48 1232.74C2036.3 1241.94 2029.42 1250.24 2020.83 1257.64C2010.91 1266.42 1999.16 1273.36 1985.55 1278.46C1971.95 1283.28 1956.94 1285.69 1940.5 1285.69ZM1883 1146.76C1882.52 1149.67 1884.84 1152.23 1887.8 1152.23H1993.21C1996.16 1152.23 1998.49 1149.67 1998 1146.76C1996.47 1137.72 1993.45 1129.77 1988.96 1122.91C1983.85 1114.41 1977.05 1107.89 1968.55 1103.36C1960.05 1098.54 1950.56 1096.13 1940.08 1096.13C1929.88 1096.13 1920.53 1098.54 1912.03 1103.36C1903.81 1107.89 1897.01 1114.41 1891.63 1122.91C1887.37 1129.77 1884.49 1137.72 1883 1146.76Z" fill="#E7B10A"/>
<path d="M1316.67 1285.69C1298.82 1285.69 1282.67 1282.71 1268.22 1276.76C1253.77 1270.53 1241.44 1262.17 1231.24 1251.69C1221.04 1240.92 1213.11 1228.74 1207.44 1215.14C1202.06 1201.25 1199.36 1186.66 1199.36 1171.36C1199.36 1150.11 1204.04 1130.7 1213.39 1113.13C1223.02 1095.56 1236.62 1081.54 1254.19 1071.05C1272.04 1060.29 1293.01 1054.9 1317.09 1054.9C1341.46 1054.9 1362.29 1060.29 1379.57 1071.05C1396.86 1081.54 1410.03 1095.56 1419.1 1113.13C1428.45 1130.42 1433.12 1149.12 1433.12 1169.23C1433.12 1172.63 1432.98 1176.18 1432.7 1179.86C1432.58 1181.34 1432.45 1182.71 1432.33 1183.97C1432.09 1186.48 1429.96 1188.36 1427.44 1188.36H1265.24C1262.28 1188.36 1259.96 1190.92 1260.45 1193.84C1261.98 1202.92 1264.99 1211.01 1269.49 1218.11C1275.16 1226.61 1282.24 1233.13 1290.74 1237.66C1299.53 1241.91 1308.88 1244.04 1318.79 1244.04C1330.13 1244.04 1340.75 1241.35 1350.67 1235.96C1359.32 1231.16 1365.62 1225.13 1369.59 1217.89C1370.81 1215.66 1373.34 1214.38 1375.79 1215.06L1414.65 1225.87C1417.64 1226.7 1419.16 1230.03 1417.64 1232.74C1412.47 1241.94 1405.59 1250.24 1397 1257.64C1387.08 1266.42 1375.32 1273.36 1361.72 1278.46C1348.12 1283.28 1333.1 1285.69 1316.67 1285.69ZM1259.16 1146.76C1258.68 1149.67 1261.01 1152.23 1263.97 1152.23H1369.37C1372.33 1152.23 1374.66 1149.67 1374.16 1146.76C1372.63 1137.72 1369.62 1129.77 1365.12 1122.91C1360.02 1114.41 1353.22 1107.89 1344.72 1103.36C1336.22 1098.54 1326.73 1096.13 1316.24 1096.13C1306.04 1096.13 1296.69 1098.54 1288.19 1103.36C1279.98 1107.89 1273.18 1114.41 1267.79 1122.91C1263.53 1129.77 1260.66 1137.72 1259.16 1146.76Z" stroke="#333325" stroke-width="20" mask="url(#path-1-outside-1_106_92)"/>
<path d="M1549.85 1285.69C1530.87 1285.69 1512.73 1282.57 1495.45 1276.34C1479.42 1270.56 1465.47 1262.22 1453.58 1251.33C1451.93 1249.81 1451.57 1247.35 1452.66 1245.38L1468.34 1216.96C1469.84 1214.24 1473.44 1213.54 1475.91 1215.42C1487.6 1224.33 1499.07 1231.04 1510.32 1235.54C1523.36 1240.64 1535.82 1243.19 1547.72 1243.19C1558.77 1243.19 1567.56 1241.2 1574.08 1237.24C1580.88 1233.27 1584.28 1227.32 1584.28 1219.39C1584.28 1214 1582.43 1209.89 1578.75 1207.06C1575.07 1203.94 1569.68 1201.25 1562.6 1198.99C1555.8 1196.72 1547.44 1194.17 1537.52 1191.34C1521.09 1185.95 1507.35 1180.71 1496.3 1175.61C1485.25 1170.51 1476.89 1164.13 1471.22 1156.48C1465.84 1148.55 1463.15 1138.49 1463.15 1126.31C1463.15 1111.57 1466.83 1098.96 1474.2 1088.48C1481.85 1077.71 1492.33 1069.35 1505.65 1063.4C1519.25 1057.45 1535.12 1054.48 1553.25 1054.48C1569.12 1054.48 1584.13 1057.03 1598.3 1062.13C1611.25 1066.53 1623.13 1073.54 1633.95 1083.15C1635.74 1084.73 1636.05 1087.38 1634.77 1089.4L1616.97 1117.42C1615.39 1119.91 1612.02 1120.49 1609.64 1118.76C1599.91 1111.66 1590.6 1106.38 1581.73 1102.93C1571.53 1098.68 1561.18 1096.56 1550.7 1096.56C1544.75 1096.56 1539.08 1097.26 1533.7 1098.68C1528.6 1100.1 1524.35 1102.51 1520.95 1105.91C1517.83 1109.02 1516.27 1113.56 1516.27 1119.51C1516.27 1124.89 1517.69 1129.14 1520.52 1132.26C1523.64 1135.09 1528.17 1137.64 1534.12 1139.91C1540.36 1142.17 1547.87 1144.72 1556.65 1147.56C1574.5 1152.66 1589.52 1157.9 1601.7 1163.28C1614.17 1168.67 1623.52 1175.33 1629.75 1183.26C1635.99 1190.91 1639.1 1201.54 1639.1 1215.14C1639.1 1237.24 1631.03 1254.52 1614.88 1266.99C1598.73 1279.46 1577.05 1285.69 1549.85 1285.69Z" stroke="#333325" stroke-width="20" mask="url(#path-1-outside-1_106_92)"/>
<path d="M1808.98 1265.76C1809.59 1268.17 1808.34 1270.67 1806.03 1271.59C1802.1 1273.16 1797.63 1274.89 1792.63 1276.76C1785.83 1279.31 1779.31 1281.05 1770.52 1282.71C1761.5 1284.42 1756.32 1285.8 1747.15 1285.26C1735.45 1284.58 1729.13 1282.63 1719.51 1275.95C1710.06 1269.38 1704.48 1263.85 1699.53 1253.46C1694.23 1242.37 1693.22 1223.19 1693.14 1221.68C1693.14 1221.61 1693.14 1221.55 1693.14 1221.48V1102.51V1058.73V991.476C1693.14 988.714 1695.38 986.476 1698.14 986.476H1741.3C1744.06 986.476 1746.3 988.714 1746.3 991.476V1053.73C1746.3 1056.49 1748.54 1058.73 1751.3 1058.73H1788.05C1790.81 1058.73 1793.05 1060.97 1793.05 1063.73V1097.51C1793.05 1100.27 1790.81 1102.51 1788.05 1102.51H1751.3C1748.54 1102.51 1746.3 1104.74 1746.3 1107.51V1211.31C1746.58 1218.96 1748.71 1224.49 1752.67 1227.89C1756.64 1231.29 1761.6 1232.99 1767.55 1232.99C1773.5 1232.99 1779.31 1232 1784.98 1230.01C1788.05 1228.94 1790.79 1227.94 1793.2 1227.04C1796.05 1225.96 1799.25 1227.56 1800 1230.52L1808.98 1265.76Z" stroke="#333325" stroke-width="20" mask="url(#path-1-outside-1_106_92)"/>
<path d="M1940.5 1285.69C1922.65 1285.69 1906.5 1282.71 1892.05 1276.76C1877.6 1270.53 1865.27 1262.17 1855.07 1251.69C1844.87 1240.92 1836.94 1228.74 1831.27 1215.14C1825.89 1201.25 1823.2 1186.66 1823.2 1171.36C1823.2 1150.11 1827.87 1130.7 1837.22 1113.13C1846.86 1095.56 1860.46 1081.54 1878.02 1071.05C1895.88 1060.29 1916.84 1054.9 1940.93 1054.9C1965.3 1054.9 1986.12 1060.29 2003.41 1071.05C2020.69 1081.54 2033.87 1095.56 2042.93 1113.13C2052.28 1130.42 2056.96 1149.12 2056.96 1169.23C2056.96 1172.63 2056.82 1176.18 2056.53 1179.86C2056.41 1181.34 2056.29 1182.71 2056.16 1183.97C2055.92 1186.48 2053.79 1188.36 2051.27 1188.36H1889.08C1886.12 1188.36 1883.79 1190.92 1884.28 1193.84C1885.81 1202.92 1888.83 1211.01 1893.33 1218.11C1898.99 1226.61 1906.08 1233.13 1914.58 1237.66C1923.36 1241.91 1932.71 1244.04 1942.63 1244.04C1953.96 1244.04 1964.59 1241.35 1974.5 1235.96C1983.15 1231.16 1989.46 1225.13 1993.42 1217.89C1994.64 1215.66 1997.18 1214.38 1999.63 1215.06L2038.48 1225.87C2041.47 1226.7 2043 1230.03 2041.48 1232.74C2036.3 1241.94 2029.42 1250.24 2020.83 1257.64C2010.91 1266.42 1999.16 1273.36 1985.55 1278.46C1971.95 1283.28 1956.94 1285.69 1940.5 1285.69ZM1883 1146.76C1882.52 1149.67 1884.84 1152.23 1887.8 1152.23H1993.21C1996.16 1152.23 1998.49 1149.67 1998 1146.76C1996.47 1137.72 1993.45 1129.77 1988.96 1122.91C1983.85 1114.41 1977.05 1107.89 1968.55 1103.36C1960.05 1098.54 1950.56 1096.13 1940.08 1096.13C1929.88 1096.13 1920.53 1098.54 1912.03 1103.36C1903.81 1107.89 1897.01 1114.41 1891.63 1122.91C1887.37 1129.77 1884.49 1137.72 1883 1146.76Z" stroke="#333325" stroke-width="20" mask="url(#path-1-outside-1_106_92)"/>
<circle cx="1821.11" cy="1013.11" r="31.6303" fill="#E7B10A" stroke="#333325" stroke-width="10"/>
<path fill-rule="evenodd" clip-rule="evenodd" d="M853.734 1014.25C860.274 1019.65 870.335 1024.47 891.732 1019.81C964.952 1003.9 1037.15 1011.78 1082.63 1040.72C1091.85 1046.57 1093.65 1048.36 1105.75 1063.01C1118.24 1078.37 1118.9 1079.38 1122.83 1090.74C1137.18 1131.31 1129.87 1172.21 1102.56 1203.69C1091.64 1216.17 1067.56 1234.57 1050.41 1243.39C1024.9 1256.45 991.662 1267.4 958.45 1273.53C854.465 1292.9 728.77 1279.91 607.742 1237.08L589.458 1229.35L585.6 1209.88C568.237 1082.68 581.037 956.965 621.111 859.077C633.858 827.801 651.323 797.482 669.292 775.148C681.408 760.146 704.316 740.302 718.752 732.149C755.122 711.797 796.655 712.94 833.468 735.228C843.792 741.386 844.65 742.23 857.147 757.584C869.038 772.403 870.425 774.529 874.288 784.747C893.39 835.156 886.446 907.449 856.001 975.914C847.097 995.92 849.774 1006.75 853.734 1014.25Z" fill="white"/>
<mask id="path-4-outside-2_106_92" maskUnits="userSpaceOnUse" x="587.472" y="696.659" width="563" height="603" fill="black">
<rect fill="white" x="587.472" y="696.659" width="563" height="603"/>
<path fill-rule="evenodd" clip-rule="evenodd" d="M891.733 1019.81C870.336 1024.47 860.275 1019.65 853.736 1014.25C849.775 1006.75 847.098 995.92 856.003 975.914C886.447 907.449 893.391 835.156 874.289 784.747C870.426 774.529 869.039 772.403 857.148 757.584C844.651 742.23 843.793 741.386 833.469 735.227C796.656 712.94 755.124 711.797 718.753 732.149C704.317 740.302 681.409 760.146 669.293 775.148C651.324 797.482 633.859 827.801 621.112 859.077C617.321 868.339 613.773 877.85 610.472 887.587C715.664 1054.2 786.8 1141.07 928.496 1278.15C938.659 1276.89 948.651 1275.36 958.451 1273.53C991.663 1267.4 1024.9 1256.45 1050.41 1243.39C1067.56 1234.57 1091.64 1216.17 1102.56 1203.69C1129.87 1172.21 1137.18 1131.31 1122.83 1090.74C1118.9 1079.38 1118.25 1078.37 1105.75 1063.01C1093.65 1048.36 1091.85 1046.57 1082.63 1040.72C1037.15 1011.78 964.953 1003.9 891.733 1019.81Z"/>
</mask>
<path fill-rule="evenodd" clip-rule="evenodd" d="M891.733 1019.81C870.336 1024.47 860.275 1019.65 853.736 1014.25C849.775 1006.75 847.098 995.92 856.003 975.914C886.447 907.449 893.391 835.156 874.289 784.747C870.426 774.529 869.039 772.403 857.148 757.584C844.651 742.23 843.793 741.386 833.469 735.227C796.656 712.94 755.124 711.797 718.753 732.149C704.317 740.302 681.409 760.146 669.293 775.148C651.324 797.482 633.859 827.801 621.112 859.077C617.321 868.339 613.773 877.85 610.472 887.587C715.664 1054.2 786.8 1141.07 928.496 1278.15C938.659 1276.89 948.651 1275.36 958.451 1273.53C991.663 1267.4 1024.9 1256.45 1050.41 1243.39C1067.56 1234.57 1091.64 1216.17 1102.56 1203.69C1129.87 1172.21 1137.18 1131.31 1122.83 1090.74C1118.9 1079.38 1118.25 1078.37 1105.75 1063.01C1093.65 1048.36 1091.85 1046.57 1082.63 1040.72C1037.15 1011.78 964.953 1003.9 891.733 1019.81Z" fill="#E7B10A"/>
<path d="M853.736 1014.25L836.05 1023.59L837.917 1027.12L841 1029.67L853.736 1014.25ZM891.733 1019.81L887.486 1000.27L887.478 1000.27L891.733 1019.81ZM856.003 975.914L874.274 984.047L874.277 984.04L856.003 975.914ZM874.289 784.747L855.582 791.82L855.584 791.827L855.587 791.834L874.289 784.747ZM857.148 757.584L872.747 745.067L872.704 745.013L872.659 744.958L857.148 757.584ZM833.469 735.227L823.112 752.336L823.167 752.37L823.223 752.403L833.469 735.227ZM718.753 732.149L708.986 714.696L708.952 714.715L708.918 714.734L718.753 732.149ZM669.293 775.148L653.734 762.581L653.722 762.596L653.71 762.611L669.293 775.148ZM621.112 859.077L639.621 866.654L639.627 866.64L639.633 866.625L621.112 859.077ZM610.472 887.587L591.531 881.167L588.469 890.2L593.561 898.265L610.472 887.587ZM928.496 1278.15L914.59 1292.52L921.459 1299.16L930.943 1298L928.496 1278.15ZM958.451 1273.53L954.82 1253.86L954.804 1253.87L954.789 1253.87L958.451 1273.53ZM1050.41 1243.39L1059.53 1261.2L1059.54 1261.19L1059.56 1261.18L1050.41 1243.39ZM1102.56 1203.69L1117.61 1216.86L1117.64 1216.83L1117.66 1216.8L1102.56 1203.69ZM1122.83 1090.74L1103.93 1097.28L1103.96 1097.35L1103.98 1097.41L1122.83 1090.74ZM1105.75 1063.01L1121.26 1050.39L1121.22 1050.33L1121.17 1050.28L1105.75 1063.01ZM1082.63 1040.72L1071.89 1057.59L1071.9 1057.59L1071.91 1057.6L1082.63 1040.72ZM841 1029.67C846.144 1033.92 853.132 1038.23 862.939 1040.35C872.45 1042.41 883.305 1042.11 895.987 1039.35L887.478 1000.27C878.763 1002.17 873.889 1001.79 871.386 1001.25C869.179 1000.78 867.867 999.981 866.471 998.828L841 1029.67ZM837.731 967.781C832.453 979.638 829.964 990.208 830.045 999.938C830.129 1009.97 832.935 1017.69 836.05 1023.59L871.421 1004.91C870.575 1003.31 870.063 1001.86 870.044 999.604C870.023 997.043 870.647 992.195 874.274 984.047L837.731 967.781ZM855.587 791.834C872.189 835.647 866.884 902.22 837.728 967.788L874.277 984.04C906.01 912.677 914.592 834.665 892.992 777.66L855.587 791.834ZM841.549 770.1C847.695 777.76 850.233 781.063 851.827 783.583C853.038 785.497 853.782 787.058 855.582 791.82L892.997 777.675C890.934 772.218 889.053 767.607 885.631 762.199C882.593 757.396 878.492 752.227 872.747 745.067L841.549 770.1ZM823.223 752.403C828.419 755.503 829.464 756.271 830.753 757.49C832.65 759.284 835.052 762.119 841.637 770.209L872.659 744.958C866.747 737.695 862.472 732.431 858.234 728.425C853.39 723.844 848.843 721.11 843.716 718.052L823.223 752.403ZM728.519 749.603C758.344 732.913 792.192 733.617 823.112 752.336L843.827 718.118C801.12 692.263 751.903 690.681 708.986 714.696L728.519 749.603ZM684.852 787.714C695.6 774.407 716.631 756.317 728.588 749.564L708.918 714.734C692.003 724.287 667.218 745.886 653.734 762.581L684.852 787.714ZM639.633 866.625C651.761 836.869 668.298 808.29 684.876 787.685L653.71 762.611C634.351 786.674 615.957 818.734 602.591 851.528L639.633 866.625ZM629.414 894.008C632.587 884.646 635.991 875.521 639.621 866.654L602.603 851.499C598.65 861.156 594.959 871.053 591.531 881.167L629.414 894.008ZM942.402 1263.77C801.826 1127.78 731.706 1042.14 627.384 876.91L593.561 898.265C699.623 1066.25 771.774 1154.36 914.59 1292.52L942.402 1263.77ZM954.789 1253.87C945.407 1255.62 935.82 1257.09 926.05 1258.3L930.943 1298C941.498 1296.69 951.896 1295.1 962.113 1293.19L954.789 1253.87ZM1041.3 1225.59C1017.76 1237.64 986.419 1248.03 954.82 1253.86L962.082 1293.2C996.907 1286.77 1032.03 1275.27 1059.53 1261.2L1041.3 1225.59ZM1087.5 1190.53C1078.46 1200.86 1056.48 1217.78 1041.27 1225.61L1059.56 1261.18C1078.64 1251.36 1104.83 1231.48 1117.61 1216.86L1087.5 1190.53ZM1103.98 1097.41C1116.03 1131.48 1109.85 1164.77 1087.45 1190.58L1117.66 1216.8C1149.89 1179.65 1158.33 1131.14 1141.69 1084.07L1103.98 1097.41ZM1090.24 1075.64C1096.82 1083.73 1099.11 1086.66 1100.48 1088.88C1101.41 1090.39 1101.95 1091.57 1103.93 1097.28L1141.73 1084.19C1139.78 1078.55 1138.02 1073.54 1134.52 1067.87C1131.46 1062.91 1127.17 1057.65 1121.26 1050.39L1090.24 1075.64ZM1071.91 1057.6C1076.2 1060.33 1077.58 1061.37 1079.21 1062.95C1081.35 1065.02 1084.07 1068.17 1090.33 1075.75L1121.17 1050.28C1115.33 1043.2 1111.1 1038.14 1107.01 1034.19C1102.41 1029.74 1098.28 1026.96 1093.35 1023.83L1071.91 1057.6ZM895.98 1039.36C966.101 1024.12 1032.36 1032.44 1071.89 1057.59L1093.37 1023.84C1041.93 991.118 963.805 983.683 887.486 1000.27L895.98 1039.36Z" fill="#333325" mask="url(#path-4-outside-2_106_92)"/>
<path fill-rule="evenodd" clip-rule="evenodd" d="M598.094 1271.32C569.103 1261.17 564.976 1259.05 560.711 1252.75C555.414 1247.3 554.173 1242.83 550.119 1212.38C534.585 1097.28 543.165 981.539 573.775 885.483C582.436 899.372 590.869 912.733 599.124 925.632C576.937 1010.95 571.963 1109.96 585.602 1209.88L589.461 1229.35L607.745 1237.08C702.887 1270.75 800.913 1285.98 889.009 1281.54C899.942 1292.24 911.288 1303.21 923.098 1314.51C822.802 1325.01 707.686 1309.91 598.094 1271.32ZM936 1313.01C943.145 1312.09 950.208 1311.04 957.182 1309.86C1001.48 1302.41 1041.79 1288.78 1076.22 1269.84C1090.35 1261.94 1119.77 1238.51 1129.11 1227.48C1161.95 1189.1 1172.69 1143.36 1160.44 1093.37C1155.47 1072.74 1150.19 1061.62 1137.13 1044.32C1128.07 1032.34 1124.49 1028.58 1115.25 1021.02C1094.52 1003.97 1064.21 990.094 1033.01 983.115C997.187 975.096 944.576 974.233 905.744 980.827C901.036 981.755 894.926 981.265 894.738 980.882L894.736 980.879L894.733 980.876C894.386 980.615 895.156 974.532 897.021 970.111C911.362 933.426 921.197 881.736 920.618 845.032C920.12 813.059 912.686 780.564 900.201 756.806C894.675 746.228 891.713 741.957 881.823 730.649C867.534 714.355 857.718 706.926 838.53 697.875C792.069 675.732 745.099 676.958 700.856 701.32C688.153 708.233 659.242 732.278 648.638 744.507C623.097 774.376 601.576 811.079 585.287 852.947C582.7 859.563 580.226 866.296 577.868 873.136C586.347 886.784 594.6 899.922 602.675 912.609C607.984 894.014 614.135 876.124 621.114 859.077C633.861 827.802 651.326 797.482 669.295 775.148C681.411 760.147 704.319 740.302 718.755 732.15C755.125 711.797 796.658 712.941 833.471 735.228C843.795 741.387 844.653 742.23 857.15 757.584C869.041 772.404 870.428 774.529 874.291 784.748C893.392 835.156 886.449 907.449 856.004 975.914C847.099 995.92 849.777 1006.75 853.737 1014.25C860.277 1019.65 870.337 1024.47 891.734 1019.81C964.954 1003.9 1037.15 1011.78 1082.63 1040.72C1091.85 1046.57 1093.65 1048.36 1105.75 1063.01C1118.25 1078.37 1118.9 1079.38 1122.83 1090.74C1137.18 1131.31 1129.87 1172.21 1102.56 1203.69C1091.65 1216.17 1067.56 1234.57 1050.42 1243.39C1024.9 1256.45 991.665 1267.4 958.453 1273.53C940.399 1276.89 921.692 1279.28 902.468 1280.71C913.229 1291.18 924.391 1301.93 936 1313.01Z" fill="#333325"/>
<path d="M572.88 1130.27L603.262 1082.93C604.592 1080.85 607.716 1081.18 608.591 1083.48L617.78 1107.66C618.451 1109.43 620.567 1110.14 622.171 1109.14L633.246 1102.24C634.684 1101.34 636.577 1101.81 637.427 1103.28L651.503 1127.53C652.366 1129.02 654.301 1129.47 655.74 1128.53L704.666 1096.52C705.722 1095.83 707.098 1095.87 708.108 1096.63L803.015 1167.78" stroke="#333325" stroke-width="10"/>
<path d="M683.006 1124.29C677.245 1128.39 673.749 1135.18 672.337 1140.61C671.849 1142.49 669.418 1143.6 667.765 1142.59C664.673 1140.69 660.249 1138.42 656.524 1138.21C651.737 1137.94 645.95 1140.97 642.093 1143.42C640.373 1144.52 640.97 1146.99 642.974 1147.37C649.323 1148.58 654.043 1149.73 658.166 1151.14C660.606 1151.98 659.713 1155.77 657.165 1156.17C654.529 1156.58 651.922 1157.31 649.941 1158.56C644.469 1162.01 641.71 1170.74 640.434 1176.57C639.982 1178.63 642.282 1179.94 643.949 1178.64C648.576 1175.03 652.293 1172.37 655.87 1170.12C658.106 1168.72 660.821 1172.03 659.518 1174.32C658.143 1176.75 657.032 1179.33 656.674 1181.75C655.878 1187.11 658.464 1193.87 660.865 1198.72C661.884 1200.79 664.704 1200.08 664.892 1197.78C665.921 1185.19 668.191 1178.24 672.8 1170.63C673.759 1169.05 676.068 1169.24 676.806 1170.93C686.249 1192.67 688.237 1209.9 688.842 1230.08C688.894 1231.82 690.72 1232.93 692.278 1232.16L700.44 1228.15C701.372 1227.69 701.898 1226.67 701.734 1225.65C697.954 1201.96 693.856 1188.84 685.116 1167.07C684.382 1165.24 686.048 1163.4 687.885 1164.11C694.68 1166.75 701.193 1171.06 710.886 1178.17C712.566 1179.4 714.797 1178.06 714.334 1176.03C712.958 1169.99 709.93 1160.65 703.952 1157.36C702.595 1156.61 700.958 1156.1 699.239 1155.77C696.665 1155.26 695.62 1150.99 698.07 1150.05C701.833 1148.62 705.802 1147.53 710.898 1146.63C713.053 1146.25 713.625 1143.55 711.672 1142.56C706.733 1140.05 699.407 1137.21 693.928 1138.81C689.205 1140.19 687.692 1142.47 684.511 1145.7C683.121 1147.1 681.156 1146.09 681.709 1144.19C683.35 1138.55 687.267 1131.1 691.077 1125.21C692.309 1123.31 690.556 1120.74 688.437 1121.56C686.514 1122.29 684.529 1123.21 683.006 1124.29Z" fill="#333325" stroke="#333325" stroke-width="3"/>
<path d="M734.9 1165.03C725.207 1186.48 708.539 1211.87 691.704 1234.25C690.417 1235.96 691.666 1238.41 693.807 1238.36L725.023 1237.66C726.122 1237.63 727.083 1236.9 727.408 1235.85C730.114 1227.13 732.25 1220.81 734.089 1212.86C734.75 1210 739.763 1209.95 740.466 1212.8C742.411 1220.67 744.674 1227.37 747.608 1236.37C747.951 1237.42 748.932 1238.14 750.037 1238.14H780.175C782.309 1238.14 783.504 1235.67 782.2 1233.98C763.775 1210.13 748.684 1185.43 739.894 1165.07C738.976 1162.95 735.854 1162.92 734.9 1165.03Z" fill="#333325" stroke="#333325" stroke-width="3"/>
<path fill-rule="evenodd" clip-rule="evenodd" d="M840.262 1050.97C825.163 1054.25 818.064 1050.85 813.449 1047.04C810.654 1041.75 808.765 1034.11 815.049 1019.99C836.532 971.675 841.432 920.66 827.953 885.089C825.227 877.878 824.248 876.378 815.857 865.92C807.038 855.086 806.433 854.49 799.148 850.144C773.17 834.417 743.862 833.61 718.196 847.972C708.009 853.725 691.844 867.729 683.294 878.315C670.614 894.075 658.289 915.47 649.294 937.54C648.433 939.646 647.589 941.769 646.763 943.91C721.878 1057.82 784.447 1134.4 880.771 1231.16C882.975 1230.8 885.165 1230.41 887.343 1230.01C910.779 1225.68 934.231 1217.95 952.238 1208.74C964.339 1202.52 981.333 1189.53 989.034 1180.72C1008.31 1158.51 1013.47 1129.65 1003.34 1101.02C1000.56 1093 1000.1 1092.29 991.286 1081.45C982.75 1071.11 981.48 1069.85 974.972 1065.72C942.878 1045.3 891.931 1039.74 840.262 1050.97Z" fill="#333325"/>
<path d="M1174.7 1374L1166.13 1342.5H1174.97L1179.85 1363.66H1180.13L1185.22 1342.5H1193.9L1199.06 1363.54H1199.33L1204.13 1342.5H1212.95L1204.4 1374H1195.15L1189.73 1354.19H1189.34L1183.93 1374H1174.7ZM1223.82 1374L1215.25 1342.5H1224.09L1228.97 1363.66H1229.26L1234.34 1342.5H1243.02L1248.18 1363.54H1248.45L1253.25 1342.5H1262.07L1253.52 1374H1244.27L1238.85 1354.19H1238.46L1233.05 1374H1223.82ZM1272.94 1374L1264.37 1342.5H1273.21L1278.09 1363.66H1278.38L1283.46 1342.5H1292.14L1297.31 1363.54H1297.57L1302.37 1342.5H1311.19L1302.64 1374H1293.39L1287.98 1354.19H1287.59L1282.17 1374H1272.94ZM1316.67 1374.53C1315.32 1374.53 1314.16 1374.05 1313.18 1373.1C1312.23 1372.13 1311.75 1370.96 1311.75 1369.61C1311.75 1368.27 1312.23 1367.12 1313.18 1366.17C1314.16 1365.21 1315.32 1364.73 1316.67 1364.73C1317.98 1364.73 1319.13 1365.21 1320.12 1366.17C1321.1 1367.12 1321.59 1368.27 1321.59 1369.61C1321.59 1370.51 1321.36 1371.34 1320.9 1372.09C1320.44 1372.83 1319.85 1373.43 1319.11 1373.88C1318.37 1374.31 1317.56 1374.53 1316.67 1374.53ZM1397.34 1374V1332H1406.07V1347.79H1406.34C1406.72 1346.94 1407.28 1346.08 1408 1345.21C1408.74 1344.32 1409.7 1343.58 1410.87 1342.99C1412.06 1342.39 1413.54 1342.09 1415.3 1342.09C1417.6 1342.09 1419.72 1342.69 1421.66 1343.89C1423.6 1345.08 1425.15 1346.88 1426.32 1349.29C1427.48 1351.68 1428.06 1354.68 1428.06 1358.29C1428.06 1361.8 1427.49 1364.77 1426.36 1367.19C1425.24 1369.6 1423.7 1371.42 1421.76 1372.67C1419.84 1373.9 1417.68 1374.51 1415.28 1374.51C1413.59 1374.51 1412.14 1374.23 1410.96 1373.67C1409.78 1373.11 1408.82 1372.41 1408.06 1371.56C1407.31 1370.7 1406.74 1369.83 1406.34 1368.96H1405.95V1374H1397.34ZM1405.89 1358.25C1405.89 1360.12 1406.15 1361.76 1406.67 1363.15C1407.19 1364.55 1407.94 1365.63 1408.93 1366.41C1409.91 1367.18 1411.11 1367.56 1412.51 1367.56C1413.94 1367.56 1415.14 1367.17 1416.12 1366.39C1417.11 1365.6 1417.85 1364.5 1418.36 1363.11C1418.88 1361.7 1419.14 1360.08 1419.14 1358.25C1419.14 1356.43 1418.89 1354.83 1418.38 1353.45C1417.87 1352.07 1417.13 1350.99 1416.14 1350.21C1415.16 1349.43 1413.95 1349.04 1412.51 1349.04C1411.09 1349.04 1409.89 1349.42 1408.9 1350.17C1407.93 1350.92 1407.19 1351.99 1406.67 1353.37C1406.15 1354.75 1405.89 1356.38 1405.89 1358.25ZM1448.24 1374.62C1445 1374.62 1442.21 1373.96 1439.88 1372.65C1437.55 1371.32 1435.76 1369.45 1434.5 1367.03C1433.25 1364.59 1432.62 1361.72 1432.62 1358.39C1432.62 1355.15 1433.25 1352.31 1434.5 1349.86C1435.76 1347.42 1437.53 1345.51 1439.81 1344.14C1442.11 1342.77 1444.81 1342.09 1447.9 1342.09C1449.97 1342.09 1451.91 1342.42 1453.7 1343.09C1455.5 1343.75 1457.08 1344.74 1458.42 1346.07C1459.77 1347.39 1460.82 1349.06 1461.57 1351.07C1462.33 1353.07 1462.7 1355.41 1462.7 1358.09V1360.49H1436.1V1355.07H1454.48C1454.48 1353.81 1454.2 1352.7 1453.66 1351.73C1453.11 1350.76 1452.35 1350 1451.38 1349.45C1450.42 1348.89 1449.31 1348.61 1448.04 1348.61C1446.71 1348.61 1445.54 1348.92 1444.51 1349.53C1443.5 1350.14 1442.71 1350.95 1442.13 1351.97C1441.56 1352.99 1441.26 1354.11 1441.25 1355.36V1360.51C1441.25 1362.06 1441.54 1363.41 1442.11 1364.55C1442.7 1365.68 1443.53 1366.56 1444.59 1367.17C1445.66 1367.79 1446.92 1368.09 1448.39 1368.09C1449.36 1368.09 1450.25 1367.96 1451.05 1367.68C1451.86 1367.41 1452.55 1367 1453.12 1366.45C1453.7 1365.91 1454.14 1365.24 1454.44 1364.44L1462.52 1364.98C1462.11 1366.92 1461.27 1368.61 1459.99 1370.06C1458.74 1371.5 1457.11 1372.62 1455.11 1373.43C1453.13 1374.22 1450.84 1374.62 1448.24 1374.62ZM1494.61 1351.48L1486.61 1351.97C1486.48 1351.29 1486.18 1350.68 1485.73 1350.13C1485.28 1349.57 1484.69 1349.12 1483.95 1348.8C1483.22 1348.45 1482.36 1348.28 1481.34 1348.28C1479.99 1348.28 1478.85 1348.57 1477.92 1349.14C1476.99 1349.71 1476.52 1350.46 1476.52 1351.4C1476.52 1352.15 1476.82 1352.79 1477.43 1353.31C1478.03 1353.83 1479.06 1354.24 1480.52 1354.56L1486.22 1355.71C1489.29 1356.34 1491.57 1357.35 1493.07 1358.74C1494.58 1360.14 1495.33 1361.97 1495.33 1364.24C1495.33 1366.3 1494.72 1368.11 1493.5 1369.67C1492.3 1371.23 1490.65 1372.45 1488.54 1373.32C1486.45 1374.18 1484.04 1374.62 1481.3 1374.62C1477.13 1374.62 1473.81 1373.75 1471.34 1372.01C1468.87 1370.26 1467.43 1367.88 1467.01 1364.87L1475.6 1364.42C1475.86 1365.69 1476.49 1366.67 1477.49 1367.33C1478.49 1367.99 1479.76 1368.32 1481.32 1368.32C1482.85 1368.32 1484.08 1368.03 1485.01 1367.44C1485.96 1366.84 1486.44 1366.06 1486.45 1365.12C1486.44 1364.33 1486.1 1363.68 1485.44 1363.17C1484.79 1362.65 1483.78 1362.26 1482.41 1361.98L1476.95 1360.9C1473.88 1360.28 1471.59 1359.21 1470.08 1357.7C1468.59 1356.18 1467.85 1354.24 1467.85 1351.89C1467.85 1349.87 1468.4 1348.13 1469.49 1346.66C1470.6 1345.2 1472.15 1344.07 1474.15 1343.28C1476.15 1342.49 1478.51 1342.09 1481.2 1342.09C1485.18 1342.09 1488.31 1342.93 1490.59 1344.61C1492.89 1346.29 1494.23 1348.58 1494.61 1351.48ZM1517.59 1342.5V1349.06H1498.62V1342.5H1517.59ZM1502.92 1334.95H1511.66V1364.32C1511.66 1365.13 1511.78 1365.76 1512.03 1366.21C1512.27 1366.64 1512.62 1366.95 1513.05 1367.13C1513.5 1367.31 1514.02 1367.4 1514.61 1367.4C1515.02 1367.4 1515.43 1367.36 1515.84 1367.29C1516.25 1367.21 1516.57 1367.15 1516.79 1367.11L1518.16 1373.61C1517.72 1373.75 1517.11 1373.9 1516.31 1374.08C1515.52 1374.27 1514.56 1374.39 1513.42 1374.43C1511.32 1374.51 1509.47 1374.23 1507.89 1373.59C1506.31 1372.95 1505.09 1371.95 1504.21 1370.6C1503.34 1369.24 1502.91 1367.53 1502.92 1365.47V1334.95ZM1523.28 1374V1342.5H1532.01V1374H1523.28ZM1527.67 1338.44C1526.37 1338.44 1525.25 1338.01 1524.32 1337.15C1523.41 1336.27 1522.95 1335.23 1522.95 1334.01C1522.95 1332.81 1523.41 1331.77 1524.32 1330.91C1525.25 1330.04 1526.37 1329.6 1527.67 1329.6C1528.96 1329.6 1530.07 1330.04 1530.99 1330.91C1531.92 1331.77 1532.38 1332.81 1532.38 1334.01C1532.38 1335.23 1531.92 1336.27 1530.99 1337.15C1530.07 1338.01 1528.96 1338.44 1527.67 1338.44ZM1553.37 1374.62C1550.13 1374.62 1547.34 1373.96 1545 1372.65C1542.68 1371.32 1540.88 1369.45 1539.63 1367.03C1538.37 1364.59 1537.74 1361.72 1537.74 1358.39C1537.74 1355.15 1538.37 1352.31 1539.63 1349.86C1540.88 1347.42 1542.65 1345.51 1544.94 1344.14C1547.23 1342.77 1549.93 1342.09 1553.02 1342.09C1555.1 1342.09 1557.03 1342.42 1558.82 1343.09C1560.63 1343.75 1562.2 1344.74 1563.54 1346.07C1564.89 1347.39 1565.94 1349.06 1566.7 1351.07C1567.45 1353.07 1567.82 1355.41 1567.82 1358.09V1360.49H1541.23V1355.07H1559.6C1559.6 1353.81 1559.33 1352.7 1558.78 1351.73C1558.23 1350.76 1557.48 1350 1556.5 1349.45C1555.55 1348.89 1554.43 1348.61 1553.16 1348.61C1551.84 1348.61 1550.66 1348.92 1549.63 1349.53C1548.62 1350.14 1547.83 1350.95 1547.26 1351.97C1546.68 1352.99 1546.39 1354.11 1546.37 1355.36V1360.51C1546.37 1362.06 1546.66 1363.41 1547.23 1364.55C1547.82 1365.68 1548.65 1366.56 1549.72 1367.17C1550.78 1367.79 1552.05 1368.09 1553.51 1368.09C1554.48 1368.09 1555.37 1367.96 1556.18 1367.68C1556.98 1367.41 1557.67 1367 1558.25 1366.45C1558.82 1365.91 1559.26 1365.24 1559.56 1364.44L1567.64 1364.98C1567.23 1366.92 1566.39 1368.61 1565.12 1370.06C1563.86 1371.5 1562.23 1372.62 1560.24 1373.43C1558.25 1374.22 1555.96 1374.62 1553.37 1374.62ZM1578.63 1374.53C1577.28 1374.53 1576.12 1374.05 1575.15 1373.1C1574.19 1372.13 1573.71 1370.96 1573.71 1369.61C1573.71 1368.27 1574.19 1367.12 1575.15 1366.17C1576.12 1365.21 1577.28 1364.73 1578.63 1364.73C1579.94 1364.73 1581.09 1365.21 1582.08 1366.17C1583.06 1367.12 1583.55 1368.27 1583.55 1369.61C1583.55 1370.51 1583.32 1371.34 1582.86 1372.09C1582.41 1372.83 1581.81 1373.43 1581.07 1373.88C1580.33 1374.31 1579.52 1374.53 1578.63 1374.53ZM1604.96 1374.62C1601.73 1374.62 1598.96 1373.93 1596.63 1372.56C1594.32 1371.18 1592.55 1369.27 1591.3 1366.82C1590.07 1364.37 1589.46 1361.56 1589.46 1358.37C1589.46 1355.15 1590.08 1352.32 1591.32 1349.88C1592.58 1347.44 1594.36 1345.53 1596.67 1344.16C1598.98 1342.78 1601.73 1342.09 1604.92 1342.09C1607.67 1342.09 1610.07 1342.59 1612.14 1343.59C1614.2 1344.58 1615.84 1345.99 1617.04 1347.79C1618.24 1349.6 1618.9 1351.71 1619.03 1354.15H1610.78C1610.55 1352.58 1609.94 1351.31 1608.94 1350.35C1607.95 1349.38 1606.66 1348.9 1605.06 1348.9C1603.71 1348.9 1602.53 1349.27 1601.51 1350.01C1600.52 1350.73 1599.74 1351.79 1599.18 1353.18C1598.62 1354.58 1598.34 1356.27 1598.34 1358.25C1598.34 1360.26 1598.61 1361.97 1599.16 1363.38C1599.72 1364.79 1600.5 1365.86 1601.51 1366.6C1602.53 1367.33 1603.71 1367.7 1605.06 1367.7C1606.06 1367.7 1606.96 1367.5 1607.75 1367.09C1608.55 1366.68 1609.22 1366.08 1609.74 1365.3C1610.27 1364.51 1610.62 1363.56 1610.78 1362.45H1619.03C1618.89 1364.86 1618.23 1366.98 1617.06 1368.81C1615.9 1370.63 1614.29 1372.05 1612.24 1373.08C1610.19 1374.1 1607.76 1374.62 1604.96 1374.62ZM1638.85 1374.62C1635.67 1374.62 1632.91 1373.94 1630.59 1372.58C1628.28 1371.22 1626.49 1369.32 1625.24 1366.88C1623.98 1364.44 1623.35 1361.6 1623.35 1358.37C1623.35 1355.12 1623.98 1352.28 1625.24 1349.84C1626.49 1347.39 1628.28 1345.49 1630.59 1344.14C1632.91 1342.77 1635.67 1342.09 1638.85 1342.09C1642.04 1342.09 1644.79 1342.77 1647.1 1344.14C1649.42 1345.49 1651.21 1347.39 1652.47 1349.84C1653.73 1352.28 1654.36 1355.12 1654.36 1358.37C1654.36 1361.6 1653.73 1364.44 1652.47 1366.88C1651.21 1369.32 1649.42 1371.22 1647.1 1372.58C1644.79 1373.94 1642.04 1374.62 1638.85 1374.62ZM1638.89 1367.85C1640.34 1367.85 1641.55 1367.44 1642.52 1366.62C1643.5 1365.78 1644.23 1364.65 1644.72 1363.21C1645.22 1361.78 1645.48 1360.14 1645.48 1358.31C1645.48 1356.48 1645.22 1354.85 1644.72 1353.41C1644.23 1351.97 1643.5 1350.84 1642.52 1350.01C1641.55 1349.17 1640.34 1348.75 1638.89 1348.75C1637.43 1348.75 1636.2 1349.17 1635.2 1350.01C1634.22 1350.84 1633.47 1351.97 1632.97 1353.41C1632.48 1354.85 1632.23 1356.48 1632.23 1358.31C1632.23 1360.14 1632.48 1361.78 1632.97 1363.21C1633.47 1364.65 1634.22 1365.78 1635.2 1366.62C1636.2 1367.44 1637.43 1367.85 1638.89 1367.85ZM1660.04 1374V1342.5H1668.36V1348.06H1668.73C1669.39 1346.21 1670.48 1344.76 1672.01 1343.69C1673.55 1342.62 1675.38 1342.09 1677.51 1342.09C1679.67 1342.09 1681.51 1342.63 1683.03 1343.71C1684.54 1344.78 1685.56 1346.23 1686.06 1348.06H1686.39C1687.03 1346.25 1688.2 1344.81 1689.88 1343.73C1691.57 1342.64 1693.58 1342.09 1695.89 1342.09C1698.83 1342.09 1701.21 1343.03 1703.04 1344.9C1704.89 1346.76 1705.81 1349.4 1705.81 1352.82V1374H1697.1V1354.54C1697.1 1352.79 1696.63 1351.48 1695.7 1350.6C1694.77 1349.73 1693.61 1349.29 1692.21 1349.29C1690.63 1349.29 1689.39 1349.79 1688.5 1350.81C1687.61 1351.8 1687.17 1353.12 1687.17 1354.76V1374H1678.7V1354.35C1678.7 1352.81 1678.26 1351.58 1677.37 1350.66C1676.49 1349.75 1675.34 1349.29 1673.9 1349.29C1672.93 1349.29 1672.06 1349.53 1671.28 1350.03C1670.51 1350.5 1669.9 1351.18 1669.45 1352.06C1669 1352.92 1668.77 1353.93 1668.77 1355.09V1374H1660.04Z" fill="#333325"/>
<path d="M1328.77 1374V1342.5H1337.09V1348.06H1337.46C1338.12 1346.21 1339.21 1344.76 1340.74 1343.69C1342.27 1342.62 1344.1 1342.09 1346.24 1342.09C1348.4 1342.09 1350.24 1342.63 1351.75 1343.71C1353.27 1344.78 1354.28 1346.23 1354.79 1348.06H1355.12C1355.76 1346.25 1356.92 1344.81 1358.6 1343.73C1360.3 1342.64 1362.3 1342.09 1364.61 1342.09C1367.55 1342.09 1369.94 1343.03 1371.77 1344.9C1373.62 1346.76 1374.54 1349.4 1374.54 1352.82V1374H1365.82V1354.54C1365.82 1352.79 1365.36 1351.48 1364.43 1350.6C1363.5 1349.73 1362.34 1349.29 1360.94 1349.29C1359.36 1349.29 1358.12 1349.79 1357.23 1350.81C1356.34 1351.8 1355.9 1353.12 1355.9 1354.76V1374H1347.43V1354.35C1347.43 1352.81 1346.98 1351.58 1346.09 1350.66C1345.22 1349.75 1344.06 1349.29 1342.63 1349.29C1341.66 1349.29 1340.78 1349.53 1340 1350.03C1339.24 1350.5 1338.63 1351.18 1338.18 1352.06C1337.73 1352.92 1337.5 1353.93 1337.5 1355.09V1374H1328.77ZM1381.44 1374V1342.5H1390.18V1374H1381.44ZM1385.83 1338.44C1384.53 1338.44 1383.42 1338.01 1382.49 1337.15C1381.57 1336.27 1381.11 1335.23 1381.11 1334.01C1381.11 1332.81 1381.57 1331.77 1382.49 1330.91C1383.42 1330.04 1384.53 1329.6 1385.83 1329.6C1387.13 1329.6 1388.23 1330.04 1389.15 1330.91C1390.08 1331.77 1390.54 1332.81 1390.54 1334.01C1390.54 1335.23 1390.08 1336.27 1389.15 1337.15C1388.23 1338.01 1387.13 1338.44 1385.83 1338.44Z" fill="#E7B10A"/>
<path d="M1174.7 1374L1173.52 1374.32L1173.77 1375.22H1174.7V1374ZM1166.13 1342.5V1341.28H1164.53L1164.95 1342.82L1166.13 1342.5ZM1174.97 1342.5L1176.16 1342.23L1175.94 1341.28H1174.97V1342.5ZM1179.85 1363.66L1178.66 1363.94L1178.88 1364.89H1179.85V1363.66ZM1180.13 1363.66V1364.89H1181.1L1181.32 1363.95L1180.13 1363.66ZM1185.22 1342.5V1341.28H1184.26L1184.03 1342.21L1185.22 1342.5ZM1193.9 1342.5L1195.08 1342.21L1194.85 1341.28H1193.9V1342.5ZM1199.06 1363.54L1197.88 1363.83L1198.11 1364.76H1199.06V1363.54ZM1199.33 1363.54V1364.76H1200.3L1200.52 1363.81L1199.33 1363.54ZM1204.13 1342.5V1341.28H1203.15L1202.94 1342.23L1204.13 1342.5ZM1212.95 1342.5L1214.13 1342.82L1214.55 1341.28H1212.95V1342.5ZM1204.4 1374V1375.22H1205.33L1205.58 1374.32L1204.4 1374ZM1195.15 1374L1193.97 1374.32L1194.21 1375.22H1195.15V1374ZM1189.73 1354.19L1190.91 1353.87L1190.67 1352.97H1189.73V1354.19ZM1189.34 1354.19V1352.97H1188.41L1188.16 1353.87L1189.34 1354.19ZM1183.93 1374V1375.22H1184.86L1185.11 1374.32L1183.93 1374ZM1175.88 1373.68L1167.31 1342.18L1164.95 1342.82L1173.52 1374.32L1175.88 1373.68ZM1166.13 1343.72H1174.97V1341.28H1166.13V1343.72ZM1173.78 1342.77L1178.66 1363.94L1181.04 1363.39L1176.16 1342.23L1173.78 1342.77ZM1179.85 1364.89H1180.13V1362.44H1179.85V1364.89ZM1181.32 1363.95L1186.41 1342.79L1184.03 1342.21L1178.95 1363.38L1181.32 1363.95ZM1185.22 1343.72H1193.9V1341.28H1185.22V1343.72ZM1192.71 1342.79L1197.88 1363.83L1200.25 1363.25L1195.08 1342.21L1192.71 1342.79ZM1199.06 1364.76H1199.33V1362.32H1199.06V1364.76ZM1200.52 1363.81L1205.32 1342.77L1202.94 1342.23L1198.14 1363.27L1200.52 1363.81ZM1204.13 1343.72H1212.95V1341.28H1204.13V1343.72ZM1211.77 1342.18L1203.22 1373.68L1205.58 1374.32L1214.13 1342.82L1211.77 1342.18ZM1204.4 1372.78H1195.15V1375.22H1204.4V1372.78ZM1196.33 1373.68L1190.91 1353.87L1188.55 1354.51L1193.97 1374.32L1196.33 1373.68ZM1189.73 1352.97H1189.34V1355.41H1189.73V1352.97ZM1188.16 1353.87L1182.75 1373.68L1185.11 1374.32L1190.52 1354.51L1188.16 1353.87ZM1183.93 1372.78H1174.7V1375.22H1183.93V1372.78ZM1223.82 1374L1222.64 1374.32L1222.89 1375.22H1223.82V1374ZM1215.25 1342.5V1341.28H1213.65L1214.07 1342.82L1215.25 1342.5ZM1224.09 1342.5L1225.28 1342.23L1225.06 1341.28H1224.09V1342.5ZM1228.97 1363.66L1227.78 1363.94L1228 1364.89H1228.97V1363.66ZM1229.26 1363.66V1364.89H1230.22L1230.44 1363.95L1229.26 1363.66ZM1234.34 1342.5V1341.28H1233.38L1233.15 1342.21L1234.34 1342.5ZM1243.02 1342.5L1244.2 1342.21L1243.98 1341.28H1243.02V1342.5ZM1248.18 1363.54L1247 1363.83L1247.23 1364.76H1248.18V1363.54ZM1248.45 1363.54V1364.76H1249.43L1249.64 1363.81L1248.45 1363.54ZM1253.25 1342.5V1341.28H1252.28L1252.06 1342.23L1253.25 1342.5ZM1262.07 1342.5L1263.25 1342.82L1263.67 1341.28H1262.07V1342.5ZM1253.52 1374V1375.22H1254.45L1254.7 1374.32L1253.52 1374ZM1244.27 1374L1243.09 1374.32L1243.33 1375.22H1244.27V1374ZM1238.85 1354.19L1240.03 1353.87L1239.79 1352.97H1238.85V1354.19ZM1238.46 1354.19V1352.97H1237.53L1237.29 1353.87L1238.46 1354.19ZM1233.05 1374V1375.22H1233.98L1234.23 1374.32L1233.05 1374ZM1225 1373.68L1216.43 1342.18L1214.07 1342.82L1222.64 1374.32L1225 1373.68ZM1215.25 1343.72H1224.09V1341.28H1215.25V1343.72ZM1222.9 1342.77L1227.78 1363.94L1230.16 1363.39L1225.28 1342.23L1222.9 1342.77ZM1228.97 1364.89H1229.26V1362.44H1228.97V1364.89ZM1230.44 1363.95L1235.53 1342.79L1233.15 1342.21L1228.07 1363.38L1230.44 1363.95ZM1234.34 1343.72H1243.02V1341.28H1234.34V1343.72ZM1241.83 1342.79L1247 1363.83L1249.37 1363.25L1244.2 1342.21L1241.83 1342.79ZM1248.18 1364.76H1248.45V1362.32H1248.18V1364.76ZM1249.64 1363.81L1254.44 1342.77L1252.06 1342.23L1247.26 1363.27L1249.64 1363.81ZM1253.25 1343.72H1262.07V1341.28H1253.25V1343.72ZM1260.89 1342.18L1252.34 1373.68L1254.7 1374.32L1263.25 1342.82L1260.89 1342.18ZM1253.52 1372.78H1244.27V1375.22H1253.52V1372.78ZM1245.45 1373.68L1240.03 1353.87L1237.67 1354.51L1243.09 1374.32L1245.45 1373.68ZM1238.85 1352.97H1238.46V1355.41H1238.85V1352.97ZM1237.29 1353.87L1231.87 1373.68L1234.23 1374.32L1239.64 1354.51L1237.29 1353.87ZM1233.05 1372.78H1223.82V1375.22H1233.05V1372.78ZM1272.94 1374L1271.76 1374.32L1272.01 1375.22H1272.94V1374ZM1264.37 1342.5V1341.28H1262.77L1263.19 1342.82L1264.37 1342.5ZM1273.21 1342.5L1274.4 1342.23L1274.18 1341.28H1273.21V1342.5ZM1278.09 1363.66L1276.9 1363.94L1277.12 1364.89H1278.09V1363.66ZM1278.38 1363.66V1364.89H1279.34L1279.57 1363.95L1278.38 1363.66ZM1283.46 1342.5V1341.28H1282.5L1282.27 1342.21L1283.46 1342.5ZM1292.14 1342.5L1293.33 1342.21L1293.1 1341.28H1292.14V1342.5ZM1297.31 1363.54L1296.12 1363.83L1296.35 1364.76H1297.31V1363.54ZM1297.57 1363.54V1364.76H1298.55L1298.76 1363.81L1297.57 1363.54ZM1302.37 1342.5V1341.28H1301.4L1301.18 1342.23L1302.37 1342.5ZM1311.19 1342.5L1312.37 1342.82L1312.79 1341.28H1311.19V1342.5ZM1302.64 1374V1375.22H1303.57L1303.82 1374.32L1302.64 1374ZM1293.39 1374L1292.21 1374.32L1292.46 1375.22H1293.39V1374ZM1287.98 1354.19L1289.15 1353.87L1288.91 1352.97H1287.98V1354.19ZM1287.59 1354.19V1352.97H1286.65L1286.41 1353.87L1287.59 1354.19ZM1282.17 1374V1375.22H1283.1L1283.35 1374.32L1282.17 1374ZM1274.12 1373.68L1265.55 1342.18L1263.19 1342.82L1271.76 1374.32L1274.12 1373.68ZM1264.37 1343.72H1273.21V1341.28H1264.37V1343.72ZM1272.02 1342.77L1276.9 1363.94L1279.28 1363.39L1274.4 1342.23L1272.02 1342.77ZM1278.09 1364.89H1278.38V1362.44H1278.09V1364.89ZM1279.57 1363.95L1284.65 1342.79L1282.27 1342.21L1277.19 1363.38L1279.57 1363.95ZM1283.46 1343.72H1292.14V1341.28H1283.46V1343.72ZM1290.95 1342.79L1296.12 1363.83L1298.49 1363.25L1293.33 1342.21L1290.95 1342.79ZM1297.31 1364.76H1297.57V1362.32H1297.31V1364.76ZM1298.76 1363.81L1303.56 1342.77L1301.18 1342.23L1296.38 1363.27L1298.76 1363.81ZM1302.37 1343.72H1311.19V1341.28H1302.37V1343.72ZM1310.01 1342.18L1301.46 1373.68L1303.82 1374.32L1312.37 1342.82L1310.01 1342.18ZM1302.64 1372.78H1293.39V1375.22H1302.64V1372.78ZM1294.57 1373.68L1289.15 1353.87L1286.8 1354.51L1292.21 1374.32L1294.57 1373.68ZM1287.98 1352.97H1287.59V1355.41H1287.98V1352.97ZM1286.41 1353.87L1280.99 1373.68L1283.35 1374.32L1288.76 1354.51L1286.41 1353.87ZM1282.17 1372.78H1272.94V1375.22H1282.17V1372.78ZM1313.18 1373.1L1312.31 1373.96L1312.32 1373.96L1312.33 1373.97L1313.18 1373.1ZM1313.18 1366.17L1312.33 1365.3L1312.32 1365.3L1313.18 1366.17ZM1320.12 1366.17L1319.26 1367.04L1319.26 1367.04L1320.12 1366.17ZM1320.9 1372.09L1319.86 1371.45L1319.85 1371.46L1320.9 1372.09ZM1319.11 1373.88L1319.73 1374.93L1319.74 1374.92L1319.75 1374.92L1319.11 1373.88ZM1316.67 1373.31C1315.64 1373.31 1314.79 1372.96 1314.04 1372.23L1312.33 1373.97C1313.52 1375.15 1314.99 1375.76 1316.67 1375.76V1373.31ZM1314.05 1372.24C1313.32 1371.5 1312.97 1370.64 1312.97 1369.61H1310.53C1310.53 1371.29 1311.13 1372.76 1312.31 1373.96L1314.05 1372.24ZM1312.97 1369.61C1312.97 1368.6 1313.32 1367.76 1314.05 1367.03L1312.32 1365.3C1311.14 1366.49 1310.53 1367.94 1310.53 1369.61H1312.97ZM1314.04 1367.04C1314.79 1366.3 1315.64 1365.95 1316.67 1365.95V1363.51C1314.99 1363.51 1313.52 1364.11 1312.33 1365.3L1314.04 1367.04ZM1316.67 1365.95C1317.65 1365.95 1318.5 1366.3 1319.26 1367.04L1320.97 1365.29C1319.77 1364.12 1318.32 1363.51 1316.67 1363.51V1365.95ZM1319.26 1367.04C1320.02 1367.78 1320.37 1368.61 1320.37 1369.61H1322.81C1322.81 1367.93 1322.18 1366.47 1320.97 1365.29L1319.26 1367.04ZM1320.37 1369.61C1320.37 1370.29 1320.2 1370.9 1319.86 1371.45L1321.93 1372.74C1322.52 1371.79 1322.81 1370.74 1322.81 1369.61H1320.37ZM1319.85 1371.46C1319.5 1372.03 1319.05 1372.48 1318.47 1372.83L1319.75 1374.92C1320.65 1374.37 1321.39 1373.63 1321.94 1372.73L1319.85 1371.46ZM1318.49 1372.83C1317.95 1373.15 1317.35 1373.31 1316.67 1373.31V1375.76C1317.77 1375.76 1318.8 1375.48 1319.73 1374.93L1318.49 1372.83ZM1328.77 1374H1327.54V1375.22H1328.77V1374ZM1328.77 1342.5V1341.28H1327.54V1342.5H1328.77ZM1337.09 1342.5H1338.31V1341.28H1337.09V1342.5ZM1337.09 1348.06H1335.87V1349.28H1337.09V1348.06ZM1337.46 1348.06V1349.28H1338.32L1338.61 1348.47L1337.46 1348.06ZM1340.74 1343.69L1340.04 1342.69L1340.04 1342.69L1340.74 1343.69ZM1351.75 1343.71L1351.05 1344.71L1351.05 1344.71L1351.75 1343.71ZM1354.79 1348.06L1353.61 1348.38L1353.86 1349.28H1354.79V1348.06ZM1355.12 1348.06V1349.28H1355.98L1356.27 1348.47L1355.12 1348.06ZM1358.6 1343.73L1359.26 1344.76L1359.27 1344.76L1358.6 1343.73ZM1371.77 1344.9L1370.9 1345.75L1370.9 1345.76L1371.77 1344.9ZM1374.54 1374V1375.22H1375.76V1374H1374.54ZM1365.82 1374H1364.6V1375.22H1365.82V1374ZM1364.43 1350.6L1363.59 1351.49L1363.59 1351.49L1364.43 1350.6ZM1357.23 1350.81L1358.14 1351.62L1358.15 1351.61L1357.23 1350.81ZM1355.9 1374V1375.22H1357.12V1374H1355.9ZM1347.43 1374H1346.21V1375.22H1347.43V1374ZM1346.09 1350.66L1345.21 1351.51L1345.22 1351.51L1346.09 1350.66ZM1340 1350.03L1340.65 1351.06L1340.66 1351.06L1340 1350.03ZM1338.18 1352.06L1339.26 1352.62L1339.26 1352.62L1338.18 1352.06ZM1337.5 1374V1375.22H1338.72V1374H1337.5ZM1329.99 1374V1342.5H1327.54V1374H1329.99ZM1328.77 1343.72H1337.09V1341.28H1328.77V1343.72ZM1335.87 1342.5V1348.06H1338.31V1342.5H1335.87ZM1337.09 1349.28H1337.46V1346.84H1337.09V1349.28ZM1338.61 1348.47C1339.19 1346.85 1340.13 1345.61 1341.44 1344.69L1340.04 1342.69C1338.29 1343.91 1337.05 1345.57 1336.31 1347.65L1338.61 1348.47ZM1341.44 1344.69C1342.74 1343.79 1344.32 1343.31 1346.24 1343.31V1340.87C1343.89 1340.87 1341.81 1341.46 1340.04 1342.69L1341.44 1344.69ZM1346.24 1343.31C1348.19 1343.31 1349.77 1343.8 1351.05 1344.71L1352.46 1342.71C1350.71 1341.46 1348.61 1340.87 1346.24 1340.87V1343.31ZM1351.05 1344.71C1352.33 1345.61 1353.18 1346.82 1353.61 1348.38L1355.97 1347.73C1355.39 1345.63 1354.21 1343.94 1352.46 1342.71L1351.05 1344.71ZM1354.79 1349.28H1355.12V1346.84H1354.79V1349.28ZM1356.27 1348.47C1356.82 1346.93 1357.8 1345.7 1359.26 1344.76L1357.94 1342.7C1356.04 1343.92 1354.7 1345.58 1353.97 1347.65L1356.27 1348.47ZM1359.27 1344.76C1360.74 1343.81 1362.5 1343.31 1364.61 1343.31V1340.87C1362.1 1340.87 1359.86 1341.46 1357.94 1342.7L1359.27 1344.76ZM1364.61 1343.31C1367.27 1343.31 1369.32 1344.15 1370.9 1345.75L1372.64 1344.04C1370.55 1341.91 1367.84 1340.87 1364.61 1340.87V1343.31ZM1370.9 1345.76C1372.46 1347.33 1373.32 1349.62 1373.32 1352.82H1375.76C1375.76 1349.18 1374.77 1346.19 1372.64 1344.04L1370.9 1345.76ZM1373.32 1352.82V1374H1375.76V1352.82H1373.32ZM1374.54 1372.78H1365.82V1375.22H1374.54V1372.78ZM1367.04 1374V1354.54H1364.6V1374H1367.04ZM1367.04 1354.54C1367.04 1352.58 1366.52 1350.89 1365.27 1349.71L1363.59 1351.49C1364.19 1352.06 1364.6 1353 1364.6 1354.54H1367.04ZM1365.27 1349.71C1364.09 1348.6 1362.62 1348.07 1360.94 1348.07V1350.51C1362.06 1350.51 1362.91 1350.85 1363.59 1351.49L1365.27 1349.71ZM1360.94 1348.07C1359.07 1348.07 1357.47 1348.68 1356.31 1350L1358.15 1351.61C1358.76 1350.91 1359.64 1350.51 1360.94 1350.51V1348.07ZM1356.32 1349.99C1355.19 1351.26 1354.67 1352.89 1354.67 1354.76H1357.12C1357.12 1353.35 1357.5 1352.34 1358.14 1351.62L1356.32 1349.99ZM1354.67 1354.76V1374H1357.12V1354.76H1354.67ZM1355.9 1372.78H1347.43V1375.22H1355.9V1372.78ZM1348.65 1374V1354.35H1346.21V1374H1348.65ZM1348.65 1354.35C1348.65 1352.56 1348.13 1351 1346.97 1349.81L1345.22 1351.51C1345.84 1352.15 1346.21 1353.06 1346.21 1354.35H1348.65ZM1346.98 1349.82C1345.84 1348.63 1344.35 1348.07 1342.63 1348.07V1350.51C1343.78 1350.51 1344.6 1350.86 1345.21 1351.51L1346.98 1349.82ZM1342.63 1348.07C1341.44 1348.07 1340.34 1348.37 1339.35 1348.99L1340.66 1351.06C1341.23 1350.7 1341.88 1350.51 1342.63 1350.51V1348.07ZM1339.36 1348.99C1338.39 1349.6 1337.63 1350.44 1337.09 1351.5L1339.26 1352.62C1339.62 1351.92 1340.09 1351.41 1340.65 1351.06L1339.36 1348.99ZM1337.1 1351.49C1336.54 1352.56 1336.28 1353.77 1336.28 1355.09H1338.72C1338.72 1354.09 1338.92 1353.28 1339.26 1352.62L1337.1 1351.49ZM1336.28 1355.09V1374H1338.72V1355.09H1336.28ZM1337.5 1372.78H1328.77V1375.22H1337.5V1372.78ZM1381.44 1374H1380.22V1375.22H1381.44V1374ZM1381.44 1342.5V1341.28H1380.22V1342.5H1381.44ZM1390.18 1342.5H1391.4V1341.28H1390.18V1342.5ZM1390.18 1374V1375.22H1391.4V1374H1390.18ZM1382.49 1337.15L1381.64 1338.03L1381.65 1338.04L1381.65 1338.04L1382.49 1337.15ZM1382.49 1330.91L1383.32 1331.8L1383.32 1331.8L1382.49 1330.91ZM1389.15 1330.91L1388.31 1331.8L1388.31 1331.8L1388.32 1331.81L1389.15 1330.91ZM1389.15 1337.15L1389.99 1338.04L1389.99 1338.04L1389.15 1337.15ZM1382.66 1374V1342.5H1380.22V1374H1382.66ZM1381.44 1343.72H1390.18V1341.28H1381.44V1343.72ZM1388.95 1342.5V1374H1391.4V1342.5H1388.95ZM1390.18 1372.78H1381.44V1375.22H1390.18V1372.78ZM1385.83 1337.22C1384.83 1337.22 1384.01 1336.9 1383.32 1336.25L1381.65 1338.04C1382.82 1339.12 1384.23 1339.66 1385.83 1339.66V1337.22ZM1383.33 1336.26C1382.64 1335.61 1382.33 1334.88 1382.33 1334.01H1379.89C1379.89 1335.58 1380.49 1336.94 1381.64 1338.03L1383.33 1336.26ZM1382.33 1334.01C1382.33 1333.16 1382.64 1332.45 1383.32 1331.8L1381.65 1330.02C1380.5 1331.1 1379.89 1332.45 1379.89 1334.01H1382.33ZM1383.32 1331.8C1384.02 1331.15 1384.83 1330.82 1385.83 1330.82V1328.38C1384.22 1328.38 1382.81 1328.93 1381.65 1330.02L1383.32 1331.8ZM1385.83 1330.82C1386.82 1330.82 1387.62 1331.15 1388.31 1331.8L1389.99 1330.03C1388.84 1328.93 1387.43 1328.38 1385.83 1328.38V1330.82ZM1388.32 1331.81C1389.01 1332.45 1389.32 1333.17 1389.32 1334.01H1391.77C1391.77 1332.45 1391.15 1331.1 1389.98 1330.02L1388.32 1331.81ZM1389.32 1334.01C1389.32 1334.87 1389.01 1335.6 1388.31 1336.26L1389.99 1338.04C1391.15 1336.94 1391.77 1335.58 1391.77 1334.01H1389.32ZM1388.31 1336.26C1387.63 1336.9 1386.83 1337.22 1385.83 1337.22V1339.66C1387.43 1339.66 1388.84 1339.12 1389.99 1338.04L1388.31 1336.26ZM1397.34 1374H1396.12V1375.22H1397.34V1374ZM1397.34 1332V1330.78H1396.12V1332H1397.34ZM1406.07 1332H1407.3V1330.78H1406.07V1332ZM1406.07 1347.79H1404.85V1349.01H1406.07V1347.79ZM1406.34 1347.79V1349.01H1407.13L1407.45 1348.29L1406.34 1347.79ZM1408 1345.21L1407.06 1344.43L1407.06 1344.43L1408 1345.21ZM1410.87 1342.99L1411.42 1344.09L1411.42 1344.08L1410.87 1342.99ZM1421.66 1343.89L1421.02 1344.93L1421.02 1344.94L1421.66 1343.89ZM1426.32 1349.29L1425.22 1349.82L1425.22 1349.82L1426.32 1349.29ZM1426.36 1367.19L1425.25 1366.67L1425.25 1366.68L1426.36 1367.19ZM1421.76 1372.67L1422.42 1373.7L1422.42 1373.7L1421.76 1372.67ZM1410.96 1373.67L1410.43 1374.78L1410.43 1374.78L1410.96 1373.67ZM1408.06 1371.56L1407.14 1372.36L1407.15 1372.37L1408.06 1371.56ZM1406.34 1368.96L1407.45 1368.45L1407.13 1367.73H1406.34V1368.96ZM1405.95 1368.96V1367.73H1404.73V1368.96H1405.95ZM1405.95 1374V1375.22H1407.17V1374H1405.95ZM1408.93 1366.41L1408.17 1367.37L1408.17 1367.38L1408.93 1366.41ZM1416.12 1366.39L1416.88 1367.35L1416.89 1367.34L1416.12 1366.39ZM1418.36 1363.11L1417.21 1362.69L1417.21 1362.69L1418.36 1363.11ZM1418.38 1353.45L1419.53 1353.03L1419.53 1353.03L1418.38 1353.45ZM1416.14 1350.21L1416.9 1349.25L1416.9 1349.25L1416.14 1350.21ZM1408.9 1350.17L1408.16 1349.2L1408.16 1349.2L1408.9 1350.17ZM1406.67 1353.37L1405.53 1352.94L1405.53 1352.94L1406.67 1353.37ZM1398.56 1374V1332H1396.12V1374H1398.56ZM1397.34 1333.22H1406.07V1330.78H1397.34V1333.22ZM1404.85 1332V1347.79H1407.3V1332H1404.85ZM1406.07 1349.01H1406.34V1346.57H1406.07V1349.01ZM1407.45 1348.29C1407.78 1347.56 1408.27 1346.8 1408.94 1345.99L1407.06 1344.43C1406.28 1345.37 1405.66 1346.32 1405.23 1347.29L1407.45 1348.29ZM1408.94 1345.99C1409.56 1345.25 1410.37 1344.61 1411.42 1344.09L1410.33 1341.9C1409.02 1342.55 1407.92 1343.39 1407.06 1344.43L1408.94 1345.99ZM1411.42 1344.08C1412.4 1343.59 1413.67 1343.31 1415.3 1343.31V1340.87C1413.41 1340.87 1411.73 1341.19 1410.32 1341.9L1411.42 1344.08ZM1415.3 1343.31C1417.37 1343.31 1419.27 1343.85 1421.02 1344.93L1422.3 1342.86C1420.17 1341.53 1417.83 1340.87 1415.3 1340.87V1343.31ZM1421.02 1344.94C1422.73 1345.98 1424.14 1347.59 1425.22 1349.82L1427.42 1348.76C1426.17 1346.18 1424.47 1344.18 1422.3 1342.85L1421.02 1344.94ZM1425.22 1349.82C1426.27 1352 1426.84 1354.8 1426.84 1358.29H1429.28C1429.28 1354.56 1428.68 1351.36 1427.42 1348.75L1425.22 1349.82ZM1426.84 1358.29C1426.84 1361.68 1426.29 1364.46 1425.25 1366.67L1427.46 1367.71C1428.69 1365.09 1429.28 1361.93 1429.28 1358.29H1426.84ZM1425.25 1366.68C1424.21 1368.9 1422.82 1370.54 1421.1 1371.64L1422.42 1373.7C1424.59 1372.31 1426.26 1370.29 1427.46 1367.71L1425.25 1366.68ZM1421.11 1371.64C1419.38 1372.74 1417.45 1373.29 1415.28 1373.29V1375.73C1417.9 1375.73 1420.29 1375.06 1422.42 1373.7L1421.11 1371.64ZM1415.28 1373.29C1413.72 1373.29 1412.46 1373.03 1411.48 1372.57L1410.43 1374.78C1411.83 1375.43 1413.46 1375.73 1415.28 1375.73V1373.29ZM1411.48 1372.57C1410.43 1372.07 1409.61 1371.46 1408.98 1370.75L1407.15 1372.37C1408.02 1373.36 1409.13 1374.15 1410.43 1374.78L1411.48 1372.57ZM1408.98 1370.76C1408.3 1369.97 1407.79 1369.2 1407.45 1368.45L1405.23 1369.46C1405.68 1370.46 1406.33 1371.43 1407.14 1372.36L1408.98 1370.76ZM1406.34 1367.73H1405.95V1370.18H1406.34V1367.73ZM1404.73 1368.96V1374H1407.17V1368.96H1404.73ZM1405.95 1372.78H1397.34V1375.22H1405.95V1372.78ZM1404.67 1358.25C1404.67 1360.23 1404.94 1362.02 1405.52 1363.58L1407.81 1362.72C1407.36 1361.5 1407.11 1360.01 1407.11 1358.25H1404.67ZM1405.52 1363.58C1406.11 1365.14 1406.98 1366.43 1408.17 1367.37L1409.68 1365.45C1408.9 1364.84 1408.27 1363.95 1407.81 1362.72L1405.52 1363.58ZM1408.17 1367.38C1409.4 1368.33 1410.87 1368.78 1412.51 1368.78V1366.34C1411.34 1366.34 1410.42 1366.02 1409.68 1365.45L1408.17 1367.38ZM1412.51 1368.78C1414.17 1368.78 1415.65 1368.32 1416.88 1367.35L1415.36 1365.43C1414.62 1366.02 1413.7 1366.34 1412.51 1366.34V1368.78ZM1416.89 1367.34C1418.08 1366.39 1418.94 1365.09 1419.51 1363.53L1417.21 1362.69C1416.77 1363.92 1416.14 1364.81 1415.36 1365.44L1416.89 1367.34ZM1419.51 1363.53C1420.08 1361.96 1420.36 1360.2 1420.36 1358.25H1417.92C1417.92 1359.97 1417.67 1361.44 1417.21 1362.69L1419.51 1363.53ZM1420.36 1358.25C1420.36 1356.32 1420.09 1354.57 1419.53 1353.03L1417.23 1353.87C1417.68 1355.09 1417.92 1356.54 1417.92 1358.25H1420.36ZM1419.53 1353.03C1418.96 1351.47 1418.09 1350.19 1416.9 1349.25L1415.39 1351.17C1416.16 1351.79 1416.79 1352.67 1417.23 1353.87L1419.53 1353.03ZM1416.9 1349.25C1415.67 1348.28 1414.18 1347.82 1412.51 1347.82V1350.26C1413.72 1350.26 1414.65 1350.58 1415.39 1351.17L1416.9 1349.25ZM1412.51 1347.82C1410.87 1347.82 1409.39 1348.26 1408.16 1349.2L1409.65 1351.14C1410.39 1350.58 1411.32 1350.26 1412.51 1350.26V1347.82ZM1408.16 1349.2C1406.97 1350.12 1406.11 1351.39 1405.53 1352.94L1407.81 1353.8C1408.27 1352.59 1408.89 1351.72 1409.65 1351.14L1408.16 1349.2ZM1405.53 1352.94C1404.94 1354.49 1404.67 1356.27 1404.67 1358.25H1407.11C1407.11 1356.49 1407.36 1355.01 1407.81 1353.8L1405.53 1352.94ZM1439.88 1372.65L1439.27 1373.71L1439.28 1373.71L1439.88 1372.65ZM1434.5 1367.03L1433.42 1367.59L1433.42 1367.59L1434.5 1367.03ZM1434.5 1349.86L1433.42 1349.3L1433.42 1349.3L1434.5 1349.86ZM1439.81 1344.14L1439.19 1343.09L1439.19 1343.09L1439.81 1344.14ZM1453.7 1343.09L1453.27 1344.24L1453.28 1344.24L1453.7 1343.09ZM1458.42 1346.07L1457.56 1346.94L1457.56 1346.94L1458.42 1346.07ZM1461.57 1351.07L1460.43 1351.5L1460.43 1351.5L1461.57 1351.07ZM1462.7 1360.49V1361.71H1463.92V1360.49H1462.7ZM1436.1 1360.49H1434.88V1361.71H1436.1V1360.49ZM1436.1 1355.07V1353.85H1434.88V1355.07H1436.1ZM1454.48 1355.07V1356.29H1455.7V1355.07H1454.48ZM1453.66 1351.73L1452.59 1352.33L1452.59 1352.33L1453.66 1351.73ZM1451.38 1349.45L1450.76 1350.51L1450.77 1350.51L1450.78 1350.52L1451.38 1349.45ZM1444.51 1349.53L1445.14 1350.58L1445.14 1350.58L1444.51 1349.53ZM1442.13 1351.97L1443.2 1352.58L1443.2 1352.57L1442.13 1351.97ZM1441.25 1355.36L1440.03 1355.34V1355.36H1441.25ZM1442.11 1364.55L1441.02 1365.1L1441.03 1365.11L1442.11 1364.55ZM1451.05 1367.68L1450.66 1366.53L1450.66 1366.53L1451.05 1367.68ZM1453.12 1366.45L1452.28 1365.57L1452.28 1365.57L1453.12 1366.45ZM1454.44 1364.44L1454.52 1363.22L1453.62 1363.16L1453.29 1364.01L1454.44 1364.44ZM1462.52 1364.98L1463.71 1365.23L1464 1363.85L1462.6 1363.76L1462.52 1364.98ZM1459.99 1370.06L1459.08 1369.26L1459.08 1369.26L1459.99 1370.06ZM1455.11 1373.43L1455.57 1374.56L1455.57 1374.56L1455.11 1373.43ZM1448.24 1373.39C1445.17 1373.39 1442.6 1372.77 1440.47 1371.58L1439.28 1373.71C1441.83 1375.15 1444.84 1375.84 1448.24 1375.84V1373.39ZM1440.48 1371.58C1438.37 1370.38 1436.74 1368.68 1435.59 1366.46L1433.42 1367.59C1434.78 1370.22 1436.74 1372.26 1439.27 1373.71L1440.48 1371.58ZM1435.59 1366.47C1434.44 1364.24 1433.84 1361.56 1433.84 1358.39H1431.39C1431.39 1361.87 1432.05 1364.95 1433.42 1367.59L1435.59 1366.47ZM1433.84 1358.39C1433.84 1355.31 1434.44 1352.67 1435.59 1350.42L1433.42 1349.3C1432.06 1351.95 1431.39 1354.99 1431.39 1358.39H1433.84ZM1435.59 1350.42C1436.75 1348.17 1438.36 1346.44 1440.44 1345.19L1439.19 1343.09C1436.7 1344.58 1434.77 1346.66 1433.42 1349.3L1435.59 1350.42ZM1440.44 1345.19C1442.52 1343.95 1444.99 1343.31 1447.9 1343.31V1340.87C1444.62 1340.87 1441.7 1341.59 1439.19 1343.09L1440.44 1345.19ZM1447.9 1343.31C1449.84 1343.31 1451.63 1343.63 1453.27 1344.24L1454.13 1341.95C1452.19 1341.22 1450.11 1340.87 1447.9 1340.87V1343.31ZM1453.28 1344.24C1454.92 1344.84 1456.34 1345.74 1457.56 1346.94L1459.28 1345.2C1457.81 1343.75 1456.08 1342.66 1454.12 1341.95L1453.28 1344.24ZM1457.56 1346.94C1458.77 1348.13 1459.73 1349.64 1460.43 1351.5L1462.72 1350.64C1461.91 1348.49 1460.77 1346.66 1459.27 1345.2L1457.56 1346.94ZM1460.43 1351.5C1461.12 1353.33 1461.48 1355.52 1461.48 1358.09H1463.92C1463.92 1355.3 1463.53 1352.81 1462.72 1350.64L1460.43 1351.5ZM1461.48 1358.09V1360.49H1463.92V1358.09H1461.48ZM1462.7 1359.26H1436.1V1361.71H1462.7V1359.26ZM1437.33 1360.49V1355.07H1434.88V1360.49H1437.33ZM1436.1 1356.29H1454.48V1353.85H1436.1V1356.29ZM1455.7 1355.07C1455.7 1353.63 1455.39 1352.31 1454.72 1351.13L1452.59 1352.33C1453.02 1353.09 1453.26 1354 1453.26 1355.07H1455.7ZM1454.72 1351.13C1454.07 1349.96 1453.15 1349.04 1451.98 1348.39L1450.78 1350.52C1451.56 1350.95 1452.16 1351.55 1452.59 1352.33L1454.72 1351.13ZM1452 1348.4C1450.83 1347.71 1449.49 1347.39 1448.04 1347.39V1349.83C1449.13 1349.83 1450.02 1350.07 1450.76 1350.51L1452 1348.4ZM1448.04 1347.39C1446.52 1347.39 1445.12 1347.74 1443.88 1348.49L1445.14 1350.58C1445.96 1350.09 1446.91 1349.83 1448.04 1349.83V1347.39ZM1443.89 1348.48C1442.69 1349.19 1441.75 1350.16 1441.07 1351.38L1443.2 1352.57C1443.67 1351.73 1444.31 1351.08 1445.14 1350.58L1443.89 1348.48ZM1441.07 1351.37C1440.39 1352.58 1440.04 1353.91 1440.03 1355.34L1442.47 1355.37C1442.48 1354.32 1442.73 1353.4 1443.2 1352.58L1441.07 1351.37ZM1440.03 1355.36V1360.51H1442.47V1355.36H1440.03ZM1440.03 1360.51C1440.03 1362.21 1440.34 1363.76 1441.02 1365.1L1443.2 1363.99C1442.73 1363.06 1442.47 1361.92 1442.47 1360.51H1440.03ZM1441.03 1365.11C1441.72 1366.44 1442.71 1367.49 1443.98 1368.23L1445.2 1366.11C1444.35 1365.62 1443.68 1364.92 1443.2 1363.98L1441.03 1365.11ZM1443.98 1368.23C1445.27 1368.97 1446.75 1369.32 1448.39 1369.32V1366.87C1447.1 1366.87 1446.05 1366.6 1445.2 1366.11L1443.98 1368.23ZM1448.39 1369.32C1449.47 1369.32 1450.5 1369.16 1451.45 1368.84L1450.66 1366.53C1450 1366.75 1449.24 1366.87 1448.39 1366.87V1369.32ZM1451.45 1368.84C1452.41 1368.51 1453.26 1368.02 1453.97 1367.34L1452.28 1365.57C1451.85 1365.98 1451.31 1366.31 1450.66 1366.53L1451.45 1368.84ZM1453.97 1367.34C1454.68 1366.66 1455.22 1365.83 1455.58 1364.88L1453.29 1364.01C1453.05 1364.64 1452.71 1365.16 1452.28 1365.57L1453.97 1367.34ZM1454.36 1365.66L1462.44 1366.2L1462.6 1363.76L1454.52 1363.22L1454.36 1365.66ZM1461.32 1364.72C1460.95 1366.47 1460.2 1367.97 1459.08 1369.26L1460.91 1370.87C1462.33 1369.26 1463.26 1367.37 1463.71 1365.23L1461.32 1364.72ZM1459.08 1369.26C1457.96 1370.53 1456.5 1371.55 1454.66 1372.29L1455.57 1374.56C1457.72 1373.69 1459.51 1372.46 1460.91 1370.87L1459.08 1369.26ZM1454.66 1372.29C1452.85 1373.02 1450.72 1373.39 1448.24 1373.39V1375.84C1450.96 1375.84 1453.41 1375.42 1455.57 1374.56L1454.66 1372.29ZM1494.61 1351.48L1494.69 1352.7L1496 1352.62L1495.82 1351.32L1494.61 1351.48ZM1486.61 1351.97L1485.42 1352.21L1485.62 1353.26L1486.69 1353.19L1486.61 1351.97ZM1485.73 1350.13L1484.78 1350.9L1484.78 1350.9L1484.79 1350.91L1485.73 1350.13ZM1483.95 1348.8L1483.43 1349.9L1483.44 1349.91L1483.45 1349.91L1483.95 1348.8ZM1477.92 1349.14L1478.55 1350.19L1478.56 1350.18L1477.92 1349.14ZM1477.43 1353.31L1476.63 1354.23L1476.63 1354.23L1477.43 1353.31ZM1480.52 1354.56L1480.27 1355.75L1480.27 1355.76L1480.28 1355.76L1480.52 1354.56ZM1486.22 1355.71L1486.47 1354.51L1486.47 1354.51L1486.22 1355.71ZM1493.07 1358.74L1492.24 1359.64L1492.24 1359.64L1493.07 1358.74ZM1493.5 1369.67L1492.54 1368.92L1492.54 1368.93L1493.5 1369.67ZM1488.54 1373.32L1489.01 1374.45L1489.01 1374.45L1488.54 1373.32ZM1471.34 1372.01L1470.63 1373.01L1470.63 1373.01L1471.34 1372.01ZM1467.01 1364.87L1466.94 1363.65L1465.61 1363.72L1465.8 1365.04L1467.01 1364.87ZM1475.6 1364.42L1476.8 1364.18L1476.59 1363.15L1475.54 1363.2L1475.6 1364.42ZM1477.49 1367.33L1476.81 1368.35L1476.82 1368.36L1477.49 1367.33ZM1485.01 1367.44L1485.67 1368.47L1485.67 1368.47L1485.01 1367.44ZM1486.45 1365.12L1487.67 1365.14L1487.67 1365.12L1487.67 1365.1L1486.45 1365.12ZM1485.44 1363.17L1484.69 1364.13L1484.69 1364.14L1484.7 1364.14L1485.44 1363.17ZM1482.41 1361.98L1482.65 1360.78L1482.65 1360.78L1482.41 1361.98ZM1476.95 1360.9L1476.71 1362.09L1476.72 1362.09L1476.95 1360.9ZM1470.08 1357.7L1469.21 1358.55L1469.22 1358.56L1470.08 1357.7ZM1469.49 1346.66L1468.52 1345.93L1468.51 1345.93L1469.49 1346.66ZM1474.15 1343.28L1473.7 1342.14L1473.69 1342.14L1474.15 1343.28ZM1490.59 1344.61L1489.87 1345.6L1489.87 1345.6L1490.59 1344.61ZM1494.54 1350.26L1486.54 1350.75L1486.69 1353.19L1494.69 1352.7L1494.54 1350.26ZM1487.81 1351.73C1487.64 1350.85 1487.25 1350.05 1486.67 1349.35L1484.79 1350.91C1485.11 1351.3 1485.32 1351.73 1485.42 1352.21L1487.81 1351.73ZM1486.68 1349.36C1486.1 1348.63 1485.34 1348.08 1484.44 1347.68L1483.45 1349.91C1484.03 1350.17 1484.46 1350.5 1484.78 1350.9L1486.68 1349.36ZM1484.47 1347.69C1483.54 1347.25 1482.49 1347.06 1481.34 1347.06V1349.51C1482.22 1349.51 1482.9 1349.65 1483.43 1349.9L1484.47 1347.69ZM1481.34 1347.06C1479.82 1347.06 1478.44 1347.39 1477.28 1348.1L1478.56 1350.18C1479.26 1349.75 1480.16 1349.51 1481.34 1349.51V1347.06ZM1477.29 1348.1C1476.06 1348.84 1475.3 1349.96 1475.3 1351.4H1477.75C1477.75 1350.96 1477.92 1350.57 1478.55 1350.19L1477.29 1348.1ZM1475.3 1351.4C1475.3 1352.53 1475.77 1353.5 1476.63 1354.23L1478.23 1352.38C1477.87 1352.08 1477.75 1351.77 1477.75 1351.4H1475.3ZM1476.63 1354.23C1477.47 1354.96 1478.75 1355.43 1480.27 1355.75L1480.78 1353.36C1479.37 1353.06 1478.59 1352.7 1478.23 1352.38L1476.63 1354.23ZM1480.28 1355.76L1485.98 1356.91L1486.47 1354.51L1480.76 1353.36L1480.28 1355.76ZM1485.98 1356.9C1488.93 1357.51 1490.97 1358.46 1492.24 1359.64L1493.9 1357.85C1492.17 1356.24 1489.65 1355.16 1486.47 1354.51L1485.98 1356.9ZM1492.24 1359.64C1493.47 1360.78 1494.11 1362.27 1494.11 1364.24H1496.55C1496.55 1361.67 1495.69 1359.5 1493.9 1357.85L1492.24 1359.64ZM1494.11 1364.24C1494.11 1366.04 1493.58 1367.59 1492.54 1368.92L1494.47 1370.42C1495.86 1368.64 1496.55 1366.56 1496.55 1364.24H1494.11ZM1492.54 1368.93C1491.48 1370.29 1490.01 1371.39 1488.07 1372.19L1489.01 1374.45C1491.28 1373.51 1493.12 1372.17 1494.47 1370.42L1492.54 1368.93ZM1488.08 1372.19C1486.16 1372.98 1483.91 1373.39 1481.3 1373.39V1375.84C1484.16 1375.84 1486.74 1375.39 1489.01 1374.45L1488.08 1372.19ZM1481.3 1373.39C1477.29 1373.39 1474.24 1372.56 1472.04 1371.01L1470.63 1373.01C1473.38 1374.94 1476.97 1375.84 1481.3 1375.84V1373.39ZM1472.04 1371.01C1469.86 1369.46 1468.6 1367.38 1468.22 1364.7L1465.8 1365.04C1466.27 1368.38 1467.89 1371.06 1470.63 1373.01L1472.04 1371.01ZM1467.07 1366.09L1475.67 1365.64L1475.54 1363.2L1466.94 1363.65L1467.07 1366.09ZM1474.4 1364.67C1474.72 1366.23 1475.52 1367.49 1476.81 1368.35L1478.17 1366.32C1477.46 1365.84 1477 1365.16 1476.8 1364.18L1474.4 1364.67ZM1476.82 1368.36C1478.07 1369.18 1479.6 1369.54 1481.32 1369.54V1367.1C1479.93 1367.1 1478.91 1366.8 1478.16 1366.31L1476.82 1368.36ZM1481.32 1369.54C1483 1369.54 1484.48 1369.22 1485.67 1368.47L1484.36 1366.4C1483.69 1366.83 1482.71 1367.1 1481.32 1367.1V1369.54ZM1485.67 1368.47C1486.89 1367.69 1487.65 1366.57 1487.67 1365.14L1485.23 1365.1C1485.22 1365.55 1485.03 1365.98 1484.36 1366.41L1485.67 1368.47ZM1487.67 1365.1C1487.65 1363.92 1487.13 1362.92 1486.19 1362.2L1484.7 1364.14C1485.08 1364.43 1485.22 1364.74 1485.23 1365.14L1487.67 1365.1ZM1486.2 1362.21C1485.33 1361.52 1484.1 1361.07 1482.65 1360.78L1482.17 1363.18C1483.46 1363.44 1484.25 1363.79 1484.69 1364.13L1486.2 1362.21ZM1482.65 1360.78L1477.19 1359.7L1476.72 1362.09L1482.17 1363.18L1482.65 1360.78ZM1477.19 1359.7C1474.25 1359.11 1472.22 1358.12 1470.95 1356.84L1469.22 1358.56C1470.95 1360.31 1473.51 1361.45 1476.71 1362.09L1477.19 1359.7ZM1470.96 1356.84C1469.72 1355.58 1469.07 1353.96 1469.07 1351.89H1466.63C1466.63 1354.53 1467.47 1356.78 1469.21 1358.55L1470.96 1356.84ZM1469.07 1351.89C1469.07 1350.1 1469.55 1348.62 1470.47 1347.39L1468.51 1345.93C1467.24 1347.63 1466.63 1349.64 1466.63 1351.89H1469.07ZM1470.46 1347.4C1471.42 1346.14 1472.77 1345.14 1474.6 1344.42L1473.69 1342.14C1471.53 1343 1469.78 1344.26 1468.52 1345.93L1470.46 1347.4ZM1474.59 1344.42C1476.43 1343.69 1478.62 1343.31 1481.2 1343.31V1340.87C1478.39 1340.87 1475.88 1341.28 1473.7 1342.14L1474.59 1344.42ZM1481.2 1343.31C1485.02 1343.31 1487.86 1344.12 1489.87 1345.6L1491.32 1343.63C1488.75 1341.74 1485.34 1340.87 1481.2 1340.87V1343.31ZM1489.87 1345.6C1491.89 1347.08 1493.06 1349.06 1493.4 1351.64L1495.82 1351.32C1495.4 1348.1 1493.89 1345.51 1491.31 1343.63L1489.87 1345.6ZM1517.59 1342.5H1518.81V1341.28H1517.59V1342.5ZM1517.59 1349.06V1350.28H1518.81V1349.06H1517.59ZM1498.62 1349.06H1497.39V1350.28H1498.62V1349.06ZM1498.62 1342.5V1341.28H1497.39V1342.5H1498.62ZM1502.92 1334.95V1333.73H1501.7V1334.95H1502.92ZM1511.66 1334.95H1512.88V1333.73H1511.66V1334.95ZM1512.03 1366.21L1510.96 1366.79L1510.96 1366.8L1510.96 1366.81L1512.03 1366.21ZM1513.05 1367.13L1512.59 1368.26L1512.61 1368.27L1513.05 1367.13ZM1515.84 1367.29L1516.04 1368.5L1516.06 1368.5L1516.08 1368.49L1515.84 1367.29ZM1516.79 1367.11L1517.98 1366.86L1517.73 1365.69L1516.56 1365.91L1516.79 1367.11ZM1518.16 1373.61L1518.52 1374.78L1519.59 1374.45L1519.36 1373.36L1518.16 1373.61ZM1516.31 1374.08L1516.05 1372.89L1516.04 1372.89L1516.03 1372.89L1516.31 1374.08ZM1513.42 1374.43L1513.38 1373.21L1513.38 1373.21L1513.42 1374.43ZM1507.89 1373.59L1507.42 1374.72L1507.43 1374.72L1507.89 1373.59ZM1504.21 1370.6L1505.24 1369.93L1505.24 1369.93L1504.21 1370.6ZM1502.92 1365.47L1504.14 1365.48V1365.47H1502.92ZM1516.36 1342.5V1349.06H1518.81V1342.5H1516.36ZM1517.59 1347.84H1498.62V1350.28H1517.59V1347.84ZM1499.84 1349.06V1342.5H1497.39V1349.06H1499.84ZM1498.62 1343.72H1517.59V1341.28H1498.62V1343.72ZM1502.92 1336.18H1511.66V1333.73H1502.92V1336.18ZM1510.44 1334.95V1364.32H1512.88V1334.95H1510.44ZM1510.44 1364.32C1510.44 1365.23 1510.57 1366.09 1510.96 1366.79L1513.1 1365.62C1512.99 1365.42 1512.88 1365.03 1512.88 1364.32H1510.44ZM1510.96 1366.81C1511.34 1367.47 1511.88 1367.97 1512.59 1368.26L1513.51 1366C1513.35 1365.93 1513.21 1365.82 1513.09 1365.61L1510.96 1366.81ZM1512.61 1368.27C1513.23 1368.51 1513.9 1368.62 1514.61 1368.62V1366.17C1514.15 1366.17 1513.78 1366.1 1513.5 1365.99L1512.61 1368.27ZM1514.61 1368.62C1515.09 1368.62 1515.57 1368.58 1516.04 1368.5L1515.64 1366.09C1515.3 1366.15 1514.95 1366.17 1514.61 1366.17V1368.62ZM1516.08 1368.49C1516.49 1368.41 1516.8 1368.35 1517.01 1368.31L1516.56 1365.91C1516.33 1365.95 1516.01 1366.01 1515.6 1366.1L1516.08 1368.49ZM1515.59 1367.36L1516.96 1373.86L1519.36 1373.36L1517.98 1366.86L1515.59 1367.36ZM1517.8 1372.44C1517.41 1372.57 1516.83 1372.71 1516.05 1372.89L1516.58 1375.27C1517.39 1375.09 1518.04 1374.93 1518.52 1374.78L1517.8 1372.44ZM1516.03 1372.89C1515.34 1373.06 1514.46 1373.17 1513.38 1373.21L1513.47 1375.65C1514.65 1375.61 1515.7 1375.49 1516.6 1375.27L1516.03 1372.89ZM1513.38 1373.21C1511.4 1373.29 1509.74 1373.02 1508.34 1372.46L1507.43 1374.72C1509.21 1375.44 1511.23 1375.74 1513.47 1375.65L1513.38 1373.21ZM1508.35 1372.46C1506.99 1371.91 1505.97 1371.06 1505.24 1369.93L1503.19 1371.26C1504.21 1372.83 1505.63 1373.99 1507.42 1374.72L1508.35 1372.46ZM1505.24 1369.93C1504.53 1368.83 1504.13 1367.37 1504.14 1365.48L1501.7 1365.46C1501.69 1367.7 1502.15 1369.66 1503.19 1371.26L1505.24 1369.93ZM1504.14 1365.47V1334.95H1501.7V1365.47H1504.14ZM1523.28 1374H1522.05V1375.22H1523.28V1374ZM1523.28 1342.5V1341.28H1522.05V1342.5H1523.28ZM1532.01 1342.5H1533.24V1341.28H1532.01V1342.5ZM1532.01 1374V1375.22H1533.24V1374H1532.01ZM1524.32 1337.15L1523.48 1338.03L1523.49 1338.04L1523.49 1338.04L1524.32 1337.15ZM1524.32 1330.91L1525.16 1331.8L1525.16 1331.8L1524.32 1330.91ZM1530.99 1330.91L1530.14 1331.8L1530.15 1331.8L1530.16 1331.81L1530.99 1330.91ZM1530.99 1337.15L1531.82 1338.04L1531.83 1338.04L1530.99 1337.15ZM1524.5 1374V1342.5H1522.05V1374H1524.5ZM1523.28 1343.72H1532.01V1341.28H1523.28V1343.72ZM1530.79 1342.5V1374H1533.24V1342.5H1530.79ZM1532.01 1372.78H1523.28V1375.22H1532.01V1372.78ZM1527.67 1337.22C1526.67 1337.22 1525.85 1336.9 1525.15 1336.25L1523.49 1338.04C1524.65 1339.12 1526.07 1339.66 1527.67 1339.66V1337.22ZM1525.17 1336.26C1524.48 1335.61 1524.17 1334.88 1524.17 1334.01H1521.73C1521.73 1335.58 1522.33 1336.94 1523.48 1338.03L1525.17 1336.26ZM1524.17 1334.01C1524.17 1333.16 1524.48 1332.45 1525.16 1331.8L1523.49 1330.02C1522.34 1331.1 1521.73 1332.45 1521.73 1334.01H1524.17ZM1525.16 1331.8C1525.86 1331.15 1526.67 1330.82 1527.67 1330.82V1328.38C1526.06 1328.38 1524.65 1328.93 1523.48 1330.02L1525.16 1331.8ZM1527.67 1330.82C1528.66 1330.82 1529.46 1331.15 1530.14 1331.8L1531.83 1330.03C1530.68 1328.93 1529.27 1328.38 1527.67 1328.38V1330.82ZM1530.16 1331.81C1530.85 1332.45 1531.16 1333.17 1531.16 1334.01H1533.6C1533.6 1332.45 1532.98 1331.1 1531.82 1330.02L1530.16 1331.81ZM1531.16 1334.01C1531.16 1334.87 1530.85 1335.6 1530.15 1336.26L1531.83 1338.04C1532.99 1336.94 1533.6 1335.58 1533.6 1334.01H1531.16ZM1530.15 1336.26C1529.47 1336.9 1528.66 1337.22 1527.67 1337.22V1339.66C1529.26 1339.66 1530.67 1339.12 1531.82 1338.04L1530.15 1336.26ZM1545 1372.65L1544.39 1373.71L1544.4 1373.71L1545 1372.65ZM1539.63 1367.03L1538.54 1367.59L1538.54 1367.59L1539.63 1367.03ZM1539.63 1349.86L1538.54 1349.3L1538.54 1349.3L1539.63 1349.86ZM1544.94 1344.14L1544.31 1343.09L1544.31 1343.09L1544.94 1344.14ZM1558.82 1343.09L1558.39 1344.24L1558.4 1344.24L1558.82 1343.09ZM1563.54 1346.07L1562.68 1346.94L1562.68 1346.94L1563.54 1346.07ZM1566.7 1351.07L1565.55 1351.5L1565.55 1351.5L1566.7 1351.07ZM1567.82 1360.49V1361.71H1569.05V1360.49H1567.82ZM1541.23 1360.49H1540V1361.71H1541.23V1360.49ZM1541.23 1355.07V1353.85H1540V1355.07H1541.23ZM1559.6 1355.07V1356.29H1560.82V1355.07H1559.6ZM1558.78 1351.73L1557.72 1352.33L1557.72 1352.33L1558.78 1351.73ZM1556.5 1349.45L1555.89 1350.51L1555.9 1350.51L1555.9 1350.52L1556.5 1349.45ZM1549.63 1349.53L1550.26 1350.58L1550.26 1350.58L1549.63 1349.53ZM1547.26 1351.97L1548.32 1352.58L1548.32 1352.57L1547.26 1351.97ZM1546.37 1355.36L1545.15 1355.34V1355.36H1546.37ZM1547.23 1364.55L1546.14 1365.1L1546.15 1365.11L1547.23 1364.55ZM1556.18 1367.68L1555.78 1366.53L1555.78 1366.53L1556.18 1367.68ZM1558.25 1366.45L1557.4 1365.57L1557.4 1365.57L1558.25 1366.45ZM1559.56 1364.44L1559.64 1363.22L1558.74 1363.16L1558.42 1364.01L1559.56 1364.44ZM1567.64 1364.98L1568.84 1365.23L1569.13 1363.85L1567.72 1363.76L1567.64 1364.98ZM1565.12 1370.06L1564.2 1369.26L1564.2 1369.26L1565.12 1370.06ZM1560.24 1373.43L1560.69 1374.56L1560.69 1374.56L1560.24 1373.43ZM1553.37 1373.39C1550.29 1373.39 1547.72 1372.77 1545.6 1371.58L1544.4 1373.71C1546.96 1375.15 1549.96 1375.84 1553.37 1375.84V1373.39ZM1545.61 1371.58C1543.49 1370.38 1541.86 1368.68 1540.71 1366.46L1538.54 1367.59C1539.91 1370.22 1541.86 1372.26 1544.39 1373.71L1545.61 1371.58ZM1540.71 1366.47C1539.56 1364.24 1538.96 1361.56 1538.96 1358.39H1536.52C1536.52 1361.87 1537.18 1364.95 1538.54 1367.59L1540.71 1366.47ZM1538.96 1358.39C1538.96 1355.31 1539.56 1352.67 1540.71 1350.42L1538.54 1349.3C1537.18 1351.95 1536.52 1354.99 1536.52 1358.39H1538.96ZM1540.71 1350.42C1541.87 1348.17 1543.49 1346.44 1545.57 1345.19L1544.31 1343.09C1541.82 1344.58 1539.9 1346.66 1538.54 1349.3L1540.71 1350.42ZM1545.56 1345.19C1547.64 1343.95 1550.11 1343.31 1553.02 1343.31V1340.87C1549.74 1340.87 1546.83 1341.59 1544.31 1343.09L1545.56 1345.19ZM1553.02 1343.31C1554.96 1343.31 1556.75 1343.63 1558.39 1344.24L1559.25 1341.95C1557.31 1341.22 1555.23 1340.87 1553.02 1340.87V1343.31ZM1558.4 1344.24C1560.05 1344.84 1561.47 1345.74 1562.68 1346.94L1564.4 1345.2C1562.93 1343.75 1561.21 1342.66 1559.24 1341.95L1558.4 1344.24ZM1562.68 1346.94C1563.89 1348.13 1564.85 1349.64 1565.55 1351.5L1567.84 1350.64C1567.04 1348.49 1565.89 1346.66 1564.39 1345.2L1562.68 1346.94ZM1565.55 1351.5C1566.24 1353.33 1566.6 1355.52 1566.6 1358.09H1569.05C1569.05 1355.3 1568.66 1352.81 1567.84 1350.64L1565.55 1351.5ZM1566.6 1358.09V1360.49H1569.05V1358.09H1566.6ZM1567.82 1359.26H1541.23V1361.71H1567.82V1359.26ZM1542.45 1360.49V1355.07H1540V1360.49H1542.45ZM1541.23 1356.29H1559.6V1353.85H1541.23V1356.29ZM1560.82 1355.07C1560.82 1353.63 1560.51 1352.31 1559.85 1351.13L1557.72 1352.33C1558.15 1353.09 1558.38 1354 1558.38 1355.07H1560.82ZM1559.85 1351.13C1559.19 1349.96 1558.27 1349.04 1557.1 1348.39L1555.9 1350.52C1556.68 1350.95 1557.28 1351.55 1557.72 1352.33L1559.85 1351.13ZM1557.12 1348.4C1555.95 1347.71 1554.62 1347.39 1553.16 1347.39V1349.83C1554.25 1349.83 1555.14 1350.07 1555.89 1350.51L1557.12 1348.4ZM1553.16 1347.39C1551.64 1347.39 1550.24 1347.74 1549.01 1348.49L1550.26 1350.58C1551.08 1350.09 1552.03 1349.83 1553.16 1349.83V1347.39ZM1549.01 1348.48C1547.81 1349.19 1546.87 1350.16 1546.19 1351.38L1548.32 1352.57C1548.79 1351.73 1549.43 1351.08 1550.26 1350.58L1549.01 1348.48ZM1546.19 1351.37C1545.51 1352.58 1545.17 1353.91 1545.15 1355.34L1547.6 1355.37C1547.61 1354.32 1547.85 1353.4 1548.32 1352.58L1546.19 1351.37ZM1545.15 1355.36V1360.51H1547.6V1355.36H1545.15ZM1545.15 1360.51C1545.15 1362.21 1545.47 1363.76 1546.14 1365.1L1548.33 1363.99C1547.86 1363.06 1547.6 1361.92 1547.6 1360.51H1545.15ZM1546.15 1365.11C1546.84 1366.44 1547.83 1367.49 1549.11 1368.23L1550.33 1366.11C1549.47 1365.62 1548.8 1364.92 1548.32 1363.98L1546.15 1365.11ZM1549.11 1368.23C1550.39 1368.97 1551.87 1369.32 1553.51 1369.32V1366.87C1552.22 1366.87 1551.18 1366.6 1550.33 1366.11L1549.11 1368.23ZM1553.51 1369.32C1554.6 1369.32 1555.62 1369.16 1556.57 1368.84L1555.78 1366.53C1555.12 1366.75 1554.37 1366.87 1553.51 1366.87V1369.32ZM1556.57 1368.84C1557.53 1368.51 1558.38 1368.02 1559.09 1367.34L1557.4 1365.57C1556.97 1365.98 1556.44 1366.31 1555.78 1366.53L1556.57 1368.84ZM1559.09 1367.34C1559.81 1366.66 1560.34 1365.83 1560.7 1364.88L1558.42 1364.01C1558.18 1364.64 1557.84 1365.16 1557.4 1365.57L1559.09 1367.34ZM1559.48 1365.66L1567.56 1366.2L1567.72 1363.76L1559.64 1363.22L1559.48 1365.66ZM1566.44 1364.72C1566.08 1366.47 1565.33 1367.97 1564.2 1369.26L1566.04 1370.87C1567.45 1369.26 1568.38 1367.37 1568.84 1365.23L1566.44 1364.72ZM1564.2 1369.26C1563.08 1370.53 1561.62 1371.55 1559.78 1372.29L1560.69 1374.56C1562.85 1373.69 1564.64 1372.46 1566.04 1370.87L1564.2 1369.26ZM1559.78 1372.29C1557.97 1373.02 1555.84 1373.39 1553.37 1373.39V1375.84C1556.09 1375.84 1558.54 1375.42 1560.69 1374.56L1559.78 1372.29ZM1575.15 1373.1L1574.28 1373.96L1574.28 1373.96L1574.29 1373.97L1575.15 1373.1ZM1575.15 1366.17L1574.29 1365.3L1574.28 1365.3L1575.15 1366.17ZM1582.08 1366.17L1581.23 1367.04L1581.23 1367.04L1582.08 1366.17ZM1582.86 1372.09L1581.82 1371.45L1581.81 1371.46L1582.86 1372.09ZM1581.07 1373.88L1581.7 1374.93L1581.7 1374.92L1581.71 1374.92L1581.07 1373.88ZM1578.63 1373.31C1577.6 1373.31 1576.75 1372.96 1576 1372.23L1574.29 1373.97C1575.49 1375.15 1576.96 1375.76 1578.63 1375.76V1373.31ZM1576.02 1372.24C1575.28 1371.5 1574.93 1370.64 1574.93 1369.61H1572.49C1572.49 1371.29 1573.09 1372.76 1574.28 1373.96L1576.02 1372.24ZM1574.93 1369.61C1574.93 1368.6 1575.28 1367.76 1576.01 1367.03L1574.28 1365.3C1573.1 1366.49 1572.49 1367.94 1572.49 1369.61H1574.93ZM1576 1367.04C1576.75 1366.3 1577.6 1365.95 1578.63 1365.95V1363.51C1576.96 1363.51 1575.49 1364.11 1574.29 1365.3L1576 1367.04ZM1578.63 1365.95C1579.61 1365.95 1580.46 1366.3 1581.23 1367.04L1582.93 1365.29C1581.73 1364.12 1580.28 1363.51 1578.63 1363.51V1365.95ZM1581.23 1367.04C1581.98 1367.78 1582.33 1368.61 1582.33 1369.61H1584.78C1584.78 1367.93 1584.14 1366.47 1582.93 1365.29L1581.23 1367.04ZM1582.33 1369.61C1582.33 1370.29 1582.16 1370.9 1581.82 1371.45L1583.9 1372.74C1584.48 1371.79 1584.78 1370.74 1584.78 1369.61H1582.33ZM1581.81 1371.46C1581.46 1372.03 1581.01 1372.48 1580.44 1372.83L1581.71 1374.92C1582.61 1374.37 1583.35 1373.63 1583.9 1372.73L1581.81 1371.46ZM1580.45 1372.83C1579.91 1373.15 1579.31 1373.31 1578.63 1373.31V1375.76C1579.73 1375.76 1580.76 1375.48 1581.7 1374.93L1580.45 1372.83ZM1596.63 1372.56L1596.01 1373.61L1596.01 1373.62L1596.63 1372.56ZM1591.3 1366.82L1590.21 1367.37L1590.21 1367.38L1591.3 1366.82ZM1591.32 1349.88L1590.23 1349.32L1590.23 1349.33L1591.32 1349.88ZM1596.67 1344.16L1597.3 1345.21L1597.3 1345.21L1596.67 1344.16ZM1612.14 1343.59L1612.67 1342.49L1612.67 1342.49L1612.14 1343.59ZM1617.04 1347.79L1616.02 1348.47L1617.04 1347.79ZM1619.03 1354.15V1355.37H1620.31L1620.25 1354.09L1619.03 1354.15ZM1610.78 1354.15L1609.57 1354.33L1609.73 1355.37H1610.78V1354.15ZM1608.94 1350.35L1608.08 1351.22L1608.09 1351.23L1608.09 1351.24L1608.94 1350.35ZM1601.51 1350.01L1602.23 1350.99L1602.23 1350.99L1601.51 1350.01ZM1599.16 1363.38L1598.02 1363.82L1598.02 1363.83L1599.16 1363.38ZM1601.51 1366.6L1602.23 1365.61L1602.23 1365.61L1601.51 1366.6ZM1607.75 1367.09L1607.19 1366L1607.19 1366L1607.75 1367.09ZM1609.74 1365.3L1608.72 1364.62L1608.72 1364.63L1609.74 1365.3ZM1610.78 1362.45V1361.23H1609.73L1609.57 1362.27L1610.78 1362.45ZM1619.03 1362.45L1620.25 1362.52L1620.32 1361.23H1619.03V1362.45ZM1617.06 1368.81L1616.03 1368.15L1616.03 1368.15L1617.06 1368.81ZM1612.24 1373.08L1611.69 1371.98L1611.69 1371.98L1612.24 1373.08ZM1604.96 1373.39C1601.91 1373.39 1599.36 1372.75 1597.25 1371.51L1596.01 1373.62C1598.56 1375.12 1601.56 1375.84 1604.96 1375.84V1373.39ZM1597.26 1371.52C1595.15 1370.26 1593.53 1368.51 1592.39 1366.27L1590.21 1367.38C1591.56 1370.02 1593.49 1372.11 1596.01 1373.61L1597.26 1371.52ZM1592.39 1366.27C1591.26 1364.02 1590.68 1361.4 1590.68 1358.37H1588.23C1588.23 1361.72 1588.88 1364.73 1590.21 1367.37L1592.39 1366.27ZM1590.68 1358.37C1590.68 1355.31 1591.27 1352.67 1592.41 1350.44L1590.23 1349.33C1588.89 1351.96 1588.23 1354.99 1588.23 1358.37H1590.68ZM1592.41 1350.44C1593.56 1348.19 1595.19 1346.46 1597.3 1345.21L1596.05 1343.11C1593.54 1344.6 1591.59 1346.68 1590.23 1349.32L1592.41 1350.44ZM1597.3 1345.21C1599.39 1343.96 1601.91 1343.31 1604.92 1343.31V1340.87C1601.55 1340.87 1598.58 1341.6 1596.05 1343.11L1597.3 1345.21ZM1604.92 1343.31C1607.52 1343.31 1609.74 1343.78 1611.61 1344.69L1612.67 1342.49C1610.41 1341.39 1607.81 1340.87 1604.92 1340.87V1343.31ZM1611.61 1344.69C1613.48 1345.6 1614.95 1346.86 1616.02 1348.47L1618.06 1347.11C1616.72 1345.12 1614.92 1343.57 1612.67 1342.49L1611.61 1344.69ZM1616.02 1348.47C1617.09 1350.07 1617.69 1351.97 1617.81 1354.21L1620.25 1354.09C1620.12 1351.46 1619.4 1349.12 1618.06 1347.11L1616.02 1348.47ZM1619.03 1352.93H1610.78V1355.37H1619.03V1352.93ZM1611.99 1353.97C1611.73 1352.17 1611.01 1350.64 1609.78 1349.47L1608.09 1351.24C1608.87 1351.98 1609.38 1352.98 1609.57 1354.33L1611.99 1353.97ZM1609.8 1349.48C1608.55 1348.25 1606.93 1347.68 1605.06 1347.68V1350.12C1606.39 1350.12 1607.36 1350.52 1608.08 1351.22L1609.8 1349.48ZM1605.06 1347.68C1603.47 1347.68 1602.03 1348.12 1600.79 1349.02L1602.23 1350.99C1603.02 1350.42 1603.95 1350.12 1605.06 1350.12V1347.68ZM1600.8 1349.02C1599.57 1349.9 1598.67 1351.17 1598.04 1352.73L1600.31 1353.64C1600.8 1352.41 1601.46 1351.56 1602.23 1350.99L1600.8 1349.02ZM1598.04 1352.73C1597.41 1354.31 1597.11 1356.16 1597.11 1358.25H1599.56C1599.56 1356.38 1599.82 1354.85 1600.31 1353.64L1598.04 1352.73ZM1597.11 1358.25C1597.11 1360.36 1597.4 1362.23 1598.02 1363.82L1600.29 1362.93C1599.82 1361.71 1599.56 1360.16 1599.56 1358.25H1597.11ZM1598.02 1363.83C1598.65 1365.41 1599.56 1366.68 1600.79 1367.58L1602.23 1365.61C1601.44 1365.03 1600.78 1364.16 1600.29 1362.92L1598.02 1363.83ZM1600.79 1367.58C1602.03 1368.49 1603.47 1368.93 1605.06 1368.93V1366.48C1603.95 1366.48 1603.02 1366.18 1602.23 1365.61L1600.79 1367.58ZM1605.06 1368.93C1606.23 1368.93 1607.32 1368.68 1608.31 1368.17L1607.19 1366C1606.59 1366.31 1605.89 1366.48 1605.06 1366.48V1368.93ZM1608.3 1368.18C1609.3 1367.67 1610.12 1366.93 1610.75 1365.98L1608.72 1364.63C1608.31 1365.24 1607.81 1365.69 1607.19 1366L1608.3 1368.18ZM1610.75 1365.99C1611.4 1365.02 1611.81 1363.89 1611.99 1362.63L1609.57 1362.27C1609.43 1363.23 1609.14 1364 1608.72 1364.62L1610.75 1365.99ZM1610.78 1363.68H1619.03V1361.23H1610.78V1363.68ZM1617.81 1362.38C1617.68 1364.6 1617.08 1366.51 1616.03 1368.15L1618.09 1369.47C1619.39 1367.44 1620.1 1365.12 1620.25 1362.52L1617.81 1362.38ZM1616.03 1368.15C1614.99 1369.77 1613.56 1371.05 1611.69 1371.98L1612.79 1374.17C1615.02 1373.05 1616.8 1371.49 1618.09 1369.47L1616.03 1368.15ZM1611.69 1371.98C1609.85 1372.91 1607.61 1373.39 1604.96 1373.39V1375.84C1607.91 1375.84 1610.53 1375.3 1612.79 1374.17L1611.69 1371.98ZM1630.59 1372.58L1629.97 1373.64L1629.97 1373.64L1630.59 1372.58ZM1625.24 1366.88L1624.15 1367.44L1624.15 1367.44L1625.24 1366.88ZM1625.24 1349.84L1626.32 1350.4L1626.32 1350.4L1625.24 1349.84ZM1630.59 1344.14L1631.21 1345.2L1631.21 1345.19L1630.59 1344.14ZM1647.1 1344.14L1646.48 1345.19L1646.48 1345.2L1647.1 1344.14ZM1652.47 1349.84L1651.38 1350.4L1651.38 1350.4L1652.47 1349.84ZM1652.47 1366.88L1653.56 1367.44L1653.56 1367.44L1652.47 1366.88ZM1647.1 1372.58L1647.72 1373.64L1647.72 1373.64L1647.1 1372.58ZM1642.52 1366.62L1643.31 1367.55L1643.32 1367.54L1642.52 1366.62ZM1644.72 1363.21L1643.57 1362.81L1643.56 1362.82L1644.72 1363.21ZM1644.72 1353.41L1643.56 1353.81L1643.57 1353.82L1644.72 1353.41ZM1635.2 1350.01L1634.42 1349.07L1634.41 1349.07L1635.2 1350.01ZM1632.97 1353.41L1631.82 1353L1631.81 1353.01L1632.97 1353.41ZM1632.97 1363.21L1631.81 1363.61L1631.82 1363.62L1632.97 1363.21ZM1635.2 1366.62L1634.41 1367.55L1634.42 1367.56L1634.43 1367.56L1635.2 1366.62ZM1638.85 1373.39C1635.84 1373.39 1633.31 1372.76 1631.2 1371.53L1629.97 1373.64C1632.52 1375.12 1635.49 1375.84 1638.85 1375.84V1373.39ZM1631.21 1371.53C1629.1 1370.29 1627.48 1368.56 1626.32 1366.32L1624.15 1367.44C1625.51 1370.08 1627.45 1372.15 1629.97 1373.64L1631.21 1371.53ZM1626.32 1366.33C1625.17 1364.08 1624.57 1361.44 1624.57 1358.37H1622.13C1622.13 1361.76 1622.79 1364.79 1624.15 1367.44L1626.32 1366.33ZM1624.57 1358.37C1624.57 1355.28 1625.17 1352.63 1626.32 1350.4L1624.15 1349.28C1622.79 1351.92 1622.13 1354.96 1622.13 1358.37H1624.57ZM1626.32 1350.4C1627.48 1348.15 1629.1 1346.43 1631.21 1345.2L1629.97 1343.09C1627.45 1344.56 1625.51 1346.64 1624.15 1349.28L1626.32 1350.4ZM1631.21 1345.19C1633.31 1343.96 1635.85 1343.31 1638.85 1343.31V1340.87C1635.49 1340.87 1632.51 1341.59 1629.97 1343.09L1631.21 1345.19ZM1638.85 1343.31C1641.86 1343.31 1644.39 1343.96 1646.48 1345.19L1647.72 1343.09C1645.19 1341.59 1642.22 1340.87 1638.85 1340.87V1343.31ZM1646.48 1345.2C1648.6 1346.43 1650.23 1348.16 1651.38 1350.4L1653.56 1349.28C1652.2 1346.63 1650.24 1344.56 1647.71 1343.08L1646.48 1345.2ZM1651.38 1350.4C1652.54 1352.63 1653.14 1355.28 1653.14 1358.37H1655.58C1655.58 1354.96 1654.92 1351.92 1653.56 1349.28L1651.38 1350.4ZM1653.14 1358.37C1653.14 1361.44 1652.54 1364.08 1651.38 1366.33L1653.56 1367.44C1654.92 1364.79 1655.58 1361.76 1655.58 1358.37H1653.14ZM1651.38 1366.32C1650.23 1368.55 1648.6 1370.28 1646.48 1371.53L1647.72 1373.64C1650.24 1372.15 1652.19 1370.08 1653.56 1367.44L1651.38 1366.32ZM1646.48 1371.53C1644.39 1372.75 1641.86 1373.39 1638.85 1373.39V1375.84C1642.21 1375.84 1645.18 1375.12 1647.72 1373.64L1646.48 1371.53ZM1638.89 1369.07C1640.59 1369.07 1642.09 1368.58 1643.31 1367.55L1641.74 1365.68C1641.02 1366.29 1640.1 1366.63 1638.89 1366.63V1369.07ZM1643.32 1367.54C1644.48 1366.54 1645.33 1365.21 1645.87 1363.61L1643.56 1362.82C1643.13 1364.08 1642.51 1365.02 1641.73 1365.69L1643.32 1367.54ZM1645.87 1363.62C1646.43 1362.03 1646.7 1360.25 1646.7 1358.31H1644.26C1644.26 1360.03 1644.02 1361.53 1643.57 1362.81L1645.87 1363.62ZM1646.7 1358.31C1646.7 1356.37 1646.43 1354.59 1645.87 1353L1643.57 1353.82C1644.02 1355.1 1644.26 1356.59 1644.26 1358.31H1646.7ZM1645.87 1353.01C1645.33 1351.41 1644.48 1350.08 1643.32 1349.08L1641.73 1350.93C1642.51 1351.6 1643.13 1352.54 1643.56 1353.81L1645.87 1353.01ZM1643.32 1349.08C1642.1 1348.03 1640.59 1347.53 1638.89 1347.53V1349.98C1640.09 1349.98 1641.01 1350.31 1641.73 1350.93L1643.32 1349.08ZM1638.89 1347.53C1637.18 1347.53 1635.66 1348.03 1634.42 1349.07L1635.99 1350.94C1636.74 1350.32 1637.68 1349.98 1638.89 1349.98V1347.53ZM1634.41 1349.07C1633.24 1350.07 1632.38 1351.4 1631.82 1353L1634.12 1353.82C1634.57 1352.55 1635.2 1351.61 1635.99 1350.94L1634.41 1349.07ZM1631.81 1353.01C1631.27 1354.6 1631.01 1356.37 1631.01 1358.31H1633.45C1633.45 1356.59 1633.68 1355.09 1634.12 1353.81L1631.81 1353.01ZM1631.01 1358.31C1631.01 1360.25 1631.27 1362.02 1631.81 1363.61L1634.12 1362.82C1633.68 1361.53 1633.45 1360.04 1633.45 1358.31H1631.01ZM1631.82 1363.62C1632.38 1365.22 1633.24 1366.55 1634.41 1367.55L1635.99 1365.68C1635.2 1365.01 1634.57 1364.07 1634.12 1362.81L1631.82 1363.62ZM1634.43 1367.56C1635.67 1368.59 1637.19 1369.07 1638.89 1369.07V1366.63C1637.68 1366.63 1636.73 1366.29 1635.98 1365.67L1634.43 1367.56ZM1660.04 1374H1658.82V1375.22H1660.04V1374ZM1660.04 1342.5V1341.28H1658.82V1342.5H1660.04ZM1668.36 1342.5H1669.59V1341.28H1668.36V1342.5ZM1668.36 1348.06H1667.14V1349.28H1668.36V1348.06ZM1668.73 1348.06V1349.28H1669.6L1669.89 1348.47L1668.73 1348.06ZM1672.01 1343.69L1671.32 1342.69L1671.32 1342.69L1672.01 1343.69ZM1683.03 1343.71L1682.32 1344.71L1682.32 1344.71L1683.03 1343.71ZM1686.06 1348.06L1684.88 1348.38L1685.13 1349.28H1686.06V1348.06ZM1686.39 1348.06V1349.28H1687.25L1687.54 1348.47L1686.39 1348.06ZM1689.88 1343.73L1690.54 1344.76L1690.54 1344.76L1689.88 1343.73ZM1703.04 1344.9L1702.17 1345.75L1702.18 1345.76L1703.04 1344.9ZM1705.81 1374V1375.22H1707.03V1374H1705.81ZM1697.1 1374H1695.87V1375.22H1697.1V1374ZM1695.7 1350.6L1694.86 1351.49L1694.86 1351.49L1695.7 1350.6ZM1688.5 1350.81L1689.42 1351.62L1689.42 1351.61L1688.5 1350.81ZM1687.17 1374V1375.22H1688.39V1374H1687.17ZM1678.7 1374H1677.48V1375.22H1678.7V1374ZM1677.37 1350.66L1676.48 1351.51L1676.49 1351.51L1677.37 1350.66ZM1671.28 1350.03L1671.92 1351.06L1671.93 1351.06L1671.28 1350.03ZM1669.45 1352.06L1670.53 1352.62L1670.54 1352.62L1669.45 1352.06ZM1668.77 1374V1375.22H1670V1374H1668.77ZM1661.26 1374V1342.5H1658.82V1374H1661.26ZM1660.04 1343.72H1668.36V1341.28H1660.04V1343.72ZM1667.14 1342.5V1348.06H1669.59V1342.5H1667.14ZM1668.36 1349.28H1668.73V1346.84H1668.36V1349.28ZM1669.89 1348.47C1670.46 1346.85 1671.4 1345.61 1672.71 1344.69L1671.32 1342.69C1669.56 1343.91 1668.32 1345.57 1667.58 1347.65L1669.89 1348.47ZM1672.71 1344.69C1674.01 1343.79 1675.59 1343.31 1677.51 1343.31V1340.87C1675.17 1340.87 1673.08 1341.46 1671.32 1342.69L1672.71 1344.69ZM1677.51 1343.31C1679.46 1343.31 1681.04 1343.8 1682.32 1344.71L1683.74 1342.71C1681.98 1341.46 1679.88 1340.87 1677.51 1340.87V1343.31ZM1682.32 1344.71C1683.6 1345.61 1684.45 1346.82 1684.88 1348.38L1687.24 1347.73C1686.66 1345.63 1685.49 1343.94 1683.73 1342.71L1682.32 1344.71ZM1686.06 1349.28H1686.39V1346.84H1686.06V1349.28ZM1687.54 1348.47C1688.09 1346.93 1689.07 1345.7 1690.54 1344.76L1689.22 1342.7C1687.32 1343.92 1685.98 1345.58 1685.24 1347.65L1687.54 1348.47ZM1690.54 1344.76C1692.01 1343.81 1693.78 1343.31 1695.89 1343.31V1340.87C1693.38 1340.87 1691.13 1341.46 1689.21 1342.7L1690.54 1344.76ZM1695.89 1343.31C1698.54 1343.31 1700.6 1344.15 1702.17 1345.75L1703.92 1344.04C1701.83 1341.91 1699.11 1340.87 1695.89 1340.87V1343.31ZM1702.18 1345.76C1703.73 1347.33 1704.59 1349.62 1704.59 1352.82H1707.03C1707.03 1349.18 1706.05 1346.19 1703.91 1344.04L1702.18 1345.76ZM1704.59 1352.82V1374H1707.03V1352.82H1704.59ZM1705.81 1372.78H1697.1V1375.22H1705.81V1372.78ZM1698.32 1374V1354.54H1695.87V1374H1698.32ZM1698.32 1354.54C1698.32 1352.58 1697.79 1350.89 1696.54 1349.71L1694.86 1351.49C1695.47 1352.06 1695.87 1353 1695.87 1354.54H1698.32ZM1696.54 1349.71C1695.36 1348.6 1693.89 1348.07 1692.21 1348.07V1350.51C1693.33 1350.51 1694.18 1350.85 1694.86 1351.49L1696.54 1349.71ZM1692.21 1348.07C1690.35 1348.07 1688.75 1348.68 1687.58 1350L1689.42 1351.61C1690.04 1350.91 1690.91 1350.51 1692.21 1350.51V1348.07ZM1687.59 1349.99C1686.46 1351.26 1685.95 1352.89 1685.95 1354.76H1688.39C1688.39 1353.35 1688.77 1352.34 1689.42 1351.62L1687.59 1349.99ZM1685.95 1354.76V1374H1688.39V1354.76H1685.95ZM1687.17 1372.78H1678.7V1375.22H1687.17V1372.78ZM1679.92 1374V1354.35H1677.48V1374H1679.92ZM1679.92 1354.35C1679.92 1352.56 1679.4 1351 1678.24 1349.81L1676.49 1351.51C1677.11 1352.15 1677.48 1353.06 1677.48 1354.35H1679.92ZM1678.25 1349.82C1677.11 1348.63 1675.62 1348.07 1673.9 1348.07V1350.51C1675.05 1350.51 1675.87 1350.86 1676.48 1351.51L1678.25 1349.82ZM1673.9 1348.07C1672.71 1348.07 1671.61 1348.37 1670.62 1348.99L1671.93 1351.06C1672.5 1350.7 1673.15 1350.51 1673.9 1350.51V1348.07ZM1670.63 1348.99C1669.66 1349.6 1668.91 1350.44 1668.36 1351.5L1670.54 1352.62C1670.9 1351.92 1671.36 1351.41 1671.92 1351.06L1670.63 1348.99ZM1668.37 1351.49C1667.81 1352.56 1667.55 1353.77 1667.55 1355.09H1670C1670 1354.09 1670.19 1353.28 1670.53 1352.62L1668.37 1351.49ZM1667.55 1355.09V1374H1670V1355.09H1667.55ZM1668.77 1372.78H1660.04V1375.22H1668.77V1372.78Z" fill="#333325"/>
</svg>
