<svg width="2249" height="696" viewBox="0 0 2249 696" fill="none" xmlns="http://www.w3.org/2000/svg">
<g clip-path="url(#clip0_335_116)">
<mask id="path-1-outside-1_335_116" maskUnits="userSpaceOnUse" x="1299.36" y="324.254" width="878" height="320" fill="black">
<rect fill="white" x="1299.36" y="324.254" width="878" height="320"/>
<path d="M1426.66 633.468C1408.81 633.468 1392.66 630.493 1378.21 624.543C1363.76 618.309 1351.43 609.951 1341.23 599.467C1331.03 588.7 1323.1 576.516 1317.43 562.915C1312.05 549.031 1309.36 534.439 1309.36 519.138C1309.36 497.887 1314.03 478.478 1323.38 460.91C1333.02 443.343 1346.62 429.317 1364.19 418.833C1382.04 408.066 1403 402.682 1427.09 402.682C1451.46 402.682 1472.28 408.066 1489.57 418.833C1506.85 429.317 1520.03 443.343 1529.09 460.91C1538.44 478.194 1543.12 496.895 1543.12 517.013C1543.12 520.413 1542.98 523.955 1542.69 527.638C1542.57 529.116 1542.45 530.487 1542.32 531.751C1542.08 534.261 1539.95 536.139 1537.43 536.139H1375.24C1372.28 536.139 1369.95 538.698 1370.44 541.615C1371.97 550.696 1374.99 558.788 1379.49 565.89C1385.15 574.391 1392.24 580.908 1400.74 585.441C1409.52 589.691 1418.87 591.816 1428.79 591.816C1440.12 591.816 1450.75 589.125 1460.67 583.741C1469.31 578.937 1475.62 572.912 1479.58 565.665C1480.8 563.437 1483.34 562.154 1485.79 562.835L1524.64 573.647C1527.63 574.479 1529.16 577.812 1527.64 580.518C1522.46 589.722 1515.58 598.021 1506.99 605.417C1497.08 614.201 1485.32 621.143 1471.72 626.243C1458.12 631.06 1443.1 633.468 1426.66 633.468ZM1369.16 494.535C1368.68 497.453 1371 500.012 1373.96 500.012H1479.37C1482.32 500.012 1484.65 497.453 1484.16 494.536C1482.63 485.499 1479.61 477.549 1475.12 470.686C1470.02 462.185 1463.22 455.668 1454.71 451.135C1446.21 446.318 1436.72 443.909 1426.24 443.909C1416.04 443.909 1406.69 446.318 1398.19 451.135C1389.97 455.668 1383.17 462.185 1377.79 470.686C1373.53 477.548 1370.65 485.498 1369.16 494.535Z"/>
<path d="M1659.84 633.468C1640.86 633.468 1622.73 630.352 1605.44 624.118C1589.42 618.339 1575.46 610.002 1563.58 599.108C1561.92 597.588 1561.57 595.128 1562.65 593.16L1578.33 564.739C1579.84 562.015 1583.43 561.315 1585.91 563.201C1597.6 572.111 1609.07 578.816 1620.32 583.316C1633.35 588.416 1645.82 590.966 1657.72 590.966C1668.77 590.966 1677.55 588.983 1684.07 585.016C1690.87 581.049 1694.27 575.099 1694.27 567.165C1694.27 561.782 1692.43 557.673 1688.74 554.84C1685.06 551.723 1679.68 549.031 1672.59 546.764C1665.79 544.498 1657.44 541.947 1647.52 539.114C1631.08 533.73 1617.34 528.488 1606.29 523.388C1595.24 518.288 1586.88 511.913 1581.21 504.262C1575.83 496.329 1573.14 486.27 1573.14 474.086C1573.14 459.352 1576.82 446.743 1584.19 436.259C1591.84 425.492 1602.32 417.133 1615.64 411.183C1629.24 405.233 1645.11 402.257 1663.24 402.257C1679.11 402.257 1694.13 404.808 1708.3 409.908C1721.24 414.31 1733.13 421.316 1743.95 430.926C1745.73 432.512 1746.05 435.163 1744.77 437.179L1726.97 465.202C1725.39 467.688 1722.01 468.27 1719.63 466.535C1709.9 459.436 1700.6 454.161 1691.72 450.71C1681.52 446.46 1671.18 444.334 1660.69 444.334C1654.74 444.334 1649.08 445.043 1643.69 446.46C1638.59 447.876 1634.34 450.285 1630.94 453.685C1627.83 456.802 1626.27 461.335 1626.27 467.286C1626.27 472.669 1627.68 476.919 1630.52 480.036C1633.63 482.87 1638.17 485.42 1644.12 487.686C1650.35 489.953 1657.86 492.503 1666.64 495.337C1684.49 500.437 1699.51 505.679 1711.7 511.063C1724.16 516.446 1733.51 523.105 1739.75 531.039C1745.98 538.689 1749.1 549.314 1749.1 562.915C1749.1 585.016 1741.02 602.3 1724.87 614.768C1708.72 627.235 1687.04 633.468 1659.84 633.468Z"/>
<path d="M1918.97 613.537C1919.59 615.95 1918.34 618.449 1916.02 619.372C1912.09 620.942 1907.63 622.666 1902.62 624.543C1895.82 627.093 1889.3 628.833 1880.52 630.493C1871.5 632.199 1866.31 633.578 1857.14 633.043C1845.45 632.362 1839.13 630.411 1829.51 623.724C1820.05 617.154 1814.48 611.626 1809.52 601.239C1804.22 590.148 1803.21 570.973 1803.14 569.458C1803.14 569.386 1803.13 569.326 1803.13 569.255V450.285V406.508V339.254C1803.13 336.493 1805.37 334.254 1808.13 334.254H1851.29C1854.05 334.254 1856.29 336.493 1856.29 339.254V401.508C1856.29 404.269 1858.53 406.508 1861.29 406.508H1898.04C1900.81 406.508 1903.04 408.746 1903.04 411.508V445.285C1903.04 448.046 1900.81 450.285 1898.04 450.285H1861.29C1858.53 450.285 1856.29 452.523 1856.29 455.285V559.09C1856.58 566.74 1858.7 572.266 1862.67 575.666C1866.63 579.066 1871.59 580.766 1877.54 580.766C1883.49 580.766 1889.3 579.774 1894.97 577.791C1898.04 576.715 1900.78 575.723 1903.19 574.814C1906.04 573.736 1909.25 575.342 1910 578.297L1918.97 613.537Z"/>
<path d="M2050.5 633.468C2032.65 633.468 2016.5 630.493 2002.04 624.543C1987.59 618.309 1975.27 609.951 1965.07 599.467C1954.87 588.7 1946.93 576.516 1941.27 562.915C1935.88 549.031 1933.19 534.439 1933.19 519.138C1933.19 497.887 1937.87 478.478 1947.22 460.91C1956.85 443.343 1970.45 429.317 1988.02 418.833C2005.87 408.066 2026.84 402.682 2050.92 402.682C2075.29 402.682 2096.12 408.066 2113.4 418.833C2130.68 429.317 2143.86 443.343 2152.93 460.91C2162.28 478.194 2166.95 496.895 2166.95 517.013C2166.95 520.413 2166.81 523.955 2166.53 527.638C2166.4 529.116 2166.28 530.487 2166.16 531.751C2165.91 534.261 2163.79 536.139 2161.26 536.139H1999.07C1996.11 536.139 1993.78 538.698 1994.28 541.615C1995.81 550.696 1998.82 558.788 2003.32 565.89C2008.99 574.391 2016.07 580.908 2024.57 585.441C2033.35 589.691 2042.7 591.816 2052.62 591.816C2063.96 591.816 2074.58 589.125 2084.5 583.741C2093.15 578.937 2099.45 572.912 2103.41 565.665C2104.63 563.437 2107.17 562.154 2109.62 562.835L2148.48 573.647C2151.47 574.479 2152.99 577.812 2151.47 580.518C2146.3 589.722 2139.41 598.021 2130.83 605.417C2120.91 614.201 2109.15 621.143 2095.55 626.243C2081.95 631.06 2066.93 633.468 2050.5 633.468ZM1992.99 494.535C1992.51 497.453 1994.84 500.012 1997.79 500.012H2103.2C2106.16 500.012 2108.49 497.453 2107.99 494.536C2106.46 485.499 2103.45 477.549 2098.95 470.686C2093.85 462.185 2087.05 455.668 2078.55 451.135C2070.05 446.318 2060.56 443.909 2050.07 443.909C2039.87 443.909 2030.52 446.318 2022.02 451.135C2013.8 455.668 2007 462.185 2001.62 470.686C1997.36 477.548 1994.48 485.498 1992.99 494.535Z"/>
</mask>
<path d="M1426.66 633.468C1408.81 633.468 1392.66 630.493 1378.21 624.543C1363.76 618.309 1351.43 609.951 1341.23 599.467C1331.03 588.7 1323.1 576.516 1317.43 562.915C1312.05 549.031 1309.36 534.439 1309.36 519.138C1309.36 497.887 1314.03 478.478 1323.38 460.91C1333.02 443.343 1346.62 429.317 1364.19 418.833C1382.04 408.066 1403 402.682 1427.09 402.682C1451.46 402.682 1472.28 408.066 1489.57 418.833C1506.85 429.317 1520.03 443.343 1529.09 460.91C1538.44 478.194 1543.12 496.895 1543.12 517.013C1543.12 520.413 1542.98 523.955 1542.69 527.638C1542.57 529.116 1542.45 530.487 1542.32 531.751C1542.08 534.261 1539.95 536.139 1537.43 536.139H1375.24C1372.28 536.139 1369.95 538.698 1370.44 541.615C1371.97 550.696 1374.99 558.788 1379.49 565.89C1385.15 574.391 1392.24 580.908 1400.74 585.441C1409.52 589.691 1418.87 591.816 1428.79 591.816C1440.12 591.816 1450.75 589.125 1460.67 583.741C1469.31 578.937 1475.62 572.912 1479.58 565.665C1480.8 563.437 1483.34 562.154 1485.79 562.835L1524.64 573.647C1527.63 574.479 1529.16 577.812 1527.64 580.518C1522.46 589.722 1515.58 598.021 1506.99 605.417C1497.08 614.201 1485.32 621.143 1471.72 626.243C1458.12 631.06 1443.1 633.468 1426.66 633.468ZM1369.16 494.535C1368.68 497.453 1371 500.012 1373.96 500.012H1479.37C1482.32 500.012 1484.65 497.453 1484.16 494.536C1482.63 485.499 1479.61 477.549 1475.12 470.686C1470.02 462.185 1463.22 455.668 1454.71 451.135C1446.21 446.318 1436.72 443.909 1426.24 443.909C1416.04 443.909 1406.69 446.318 1398.19 451.135C1389.97 455.668 1383.17 462.185 1377.79 470.686C1373.53 477.548 1370.65 485.498 1369.16 494.535Z" fill="#E7B10A"/>
<path d="M1659.84 633.468C1640.86 633.468 1622.73 630.352 1605.44 624.118C1589.42 618.339 1575.46 610.002 1563.58 599.108C1561.92 597.588 1561.57 595.128 1562.65 593.16L1578.33 564.739C1579.84 562.015 1583.43 561.315 1585.91 563.201C1597.6 572.111 1609.07 578.816 1620.32 583.316C1633.35 588.416 1645.82 590.966 1657.72 590.966C1668.77 590.966 1677.55 588.983 1684.07 585.016C1690.87 581.049 1694.27 575.099 1694.27 567.165C1694.27 561.782 1692.43 557.673 1688.74 554.84C1685.06 551.723 1679.68 549.031 1672.59 546.764C1665.79 544.498 1657.44 541.947 1647.52 539.114C1631.08 533.73 1617.34 528.488 1606.29 523.388C1595.24 518.288 1586.88 511.913 1581.21 504.262C1575.83 496.329 1573.14 486.27 1573.14 474.086C1573.14 459.352 1576.82 446.743 1584.19 436.259C1591.84 425.492 1602.32 417.133 1615.64 411.183C1629.24 405.233 1645.11 402.257 1663.24 402.257C1679.11 402.257 1694.13 404.808 1708.3 409.908C1721.24 414.31 1733.13 421.316 1743.95 430.926C1745.73 432.512 1746.05 435.163 1744.77 437.179L1726.97 465.202C1725.39 467.688 1722.01 468.27 1719.63 466.535C1709.9 459.436 1700.6 454.161 1691.72 450.71C1681.52 446.46 1671.18 444.334 1660.69 444.334C1654.74 444.334 1649.08 445.043 1643.69 446.46C1638.59 447.876 1634.34 450.285 1630.94 453.685C1627.83 456.802 1626.27 461.335 1626.27 467.286C1626.27 472.669 1627.68 476.919 1630.52 480.036C1633.63 482.87 1638.17 485.42 1644.12 487.686C1650.35 489.953 1657.86 492.503 1666.64 495.337C1684.49 500.437 1699.51 505.679 1711.7 511.063C1724.16 516.446 1733.51 523.105 1739.75 531.039C1745.98 538.689 1749.1 549.314 1749.1 562.915C1749.1 585.016 1741.02 602.3 1724.87 614.768C1708.72 627.235 1687.04 633.468 1659.84 633.468Z" fill="#E7B10A"/>
<path d="M1918.97 613.537C1919.59 615.95 1918.34 618.449 1916.02 619.372C1912.09 620.942 1907.63 622.666 1902.62 624.543C1895.82 627.093 1889.3 628.833 1880.52 630.493C1871.5 632.199 1866.31 633.578 1857.14 633.043C1845.45 632.362 1839.13 630.411 1829.51 623.724C1820.05 617.154 1814.48 611.626 1809.52 601.239C1804.22 590.148 1803.21 570.973 1803.14 569.458C1803.14 569.386 1803.13 569.326 1803.13 569.255V450.285V406.508V339.254C1803.13 336.493 1805.37 334.254 1808.13 334.254H1851.29C1854.05 334.254 1856.29 336.493 1856.29 339.254V401.508C1856.29 404.269 1858.53 406.508 1861.29 406.508H1898.04C1900.81 406.508 1903.04 408.746 1903.04 411.508V445.285C1903.04 448.046 1900.81 450.285 1898.04 450.285H1861.29C1858.53 450.285 1856.29 452.523 1856.29 455.285V559.09C1856.58 566.74 1858.7 572.266 1862.67 575.666C1866.63 579.066 1871.59 580.766 1877.54 580.766C1883.49 580.766 1889.3 579.774 1894.97 577.791C1898.04 576.715 1900.78 575.723 1903.19 574.814C1906.04 573.736 1909.25 575.342 1910 578.297L1918.97 613.537Z" fill="#E7B10A"/>
<path d="M2050.5 633.468C2032.65 633.468 2016.5 630.493 2002.04 624.543C1987.59 618.309 1975.27 609.951 1965.07 599.467C1954.87 588.7 1946.93 576.516 1941.27 562.915C1935.88 549.031 1933.19 534.439 1933.19 519.138C1933.19 497.887 1937.87 478.478 1947.22 460.91C1956.85 443.343 1970.45 429.317 1988.02 418.833C2005.87 408.066 2026.84 402.682 2050.92 402.682C2075.29 402.682 2096.12 408.066 2113.4 418.833C2130.68 429.317 2143.86 443.343 2152.93 460.91C2162.28 478.194 2166.95 496.895 2166.95 517.013C2166.95 520.413 2166.81 523.955 2166.53 527.638C2166.4 529.116 2166.28 530.487 2166.16 531.751C2165.91 534.261 2163.79 536.139 2161.26 536.139H1999.07C1996.11 536.139 1993.78 538.698 1994.28 541.615C1995.81 550.696 1998.82 558.788 2003.32 565.89C2008.99 574.391 2016.07 580.908 2024.57 585.441C2033.35 589.691 2042.7 591.816 2052.62 591.816C2063.96 591.816 2074.58 589.125 2084.5 583.741C2093.15 578.937 2099.45 572.912 2103.41 565.665C2104.63 563.437 2107.17 562.154 2109.62 562.835L2148.48 573.647C2151.47 574.479 2152.99 577.812 2151.47 580.518C2146.3 589.722 2139.41 598.021 2130.83 605.417C2120.91 614.201 2109.15 621.143 2095.55 626.243C2081.95 631.06 2066.93 633.468 2050.5 633.468ZM1992.99 494.535C1992.51 497.453 1994.84 500.012 1997.79 500.012H2103.2C2106.16 500.012 2108.49 497.453 2107.99 494.536C2106.46 485.499 2103.45 477.549 2098.95 470.686C2093.85 462.185 2087.05 455.668 2078.55 451.135C2070.05 446.318 2060.56 443.909 2050.07 443.909C2039.87 443.909 2030.52 446.318 2022.02 451.135C2013.8 455.668 2007 462.185 2001.62 470.686C1997.36 477.548 1994.48 485.498 1992.99 494.535Z" fill="#E7B10A"/>
<path d="M1426.66 633.468C1408.81 633.468 1392.66 630.493 1378.21 624.543C1363.76 618.309 1351.43 609.951 1341.23 599.467C1331.03 588.7 1323.1 576.516 1317.43 562.915C1312.05 549.031 1309.36 534.439 1309.36 519.138C1309.36 497.887 1314.03 478.478 1323.38 460.91C1333.02 443.343 1346.62 429.317 1364.19 418.833C1382.04 408.066 1403 402.682 1427.09 402.682C1451.46 402.682 1472.28 408.066 1489.57 418.833C1506.85 429.317 1520.03 443.343 1529.09 460.91C1538.44 478.194 1543.12 496.895 1543.12 517.013C1543.12 520.413 1542.98 523.955 1542.69 527.638C1542.57 529.116 1542.45 530.487 1542.32 531.751C1542.08 534.261 1539.95 536.139 1537.43 536.139H1375.24C1372.28 536.139 1369.95 538.698 1370.44 541.615C1371.97 550.696 1374.99 558.788 1379.49 565.89C1385.15 574.391 1392.24 580.908 1400.74 585.441C1409.52 589.691 1418.87 591.816 1428.79 591.816C1440.12 591.816 1450.75 589.125 1460.67 583.741C1469.31 578.937 1475.62 572.912 1479.58 565.665C1480.8 563.437 1483.34 562.154 1485.79 562.835L1524.64 573.647C1527.63 574.479 1529.16 577.812 1527.64 580.518C1522.46 589.722 1515.58 598.021 1506.99 605.417C1497.08 614.201 1485.32 621.143 1471.72 626.243C1458.12 631.06 1443.1 633.468 1426.66 633.468ZM1369.16 494.535C1368.68 497.453 1371 500.012 1373.96 500.012H1479.37C1482.32 500.012 1484.65 497.453 1484.16 494.536C1482.63 485.499 1479.61 477.549 1475.12 470.686C1470.02 462.185 1463.22 455.668 1454.71 451.135C1446.21 446.318 1436.72 443.909 1426.24 443.909C1416.04 443.909 1406.69 446.318 1398.19 451.135C1389.97 455.668 1383.17 462.185 1377.79 470.686C1373.53 477.548 1370.65 485.498 1369.16 494.535Z" stroke="black" stroke-width="20" mask="url(#path-1-outside-1_335_116)"/>
<path d="M1659.84 633.468C1640.86 633.468 1622.73 630.352 1605.44 624.118C1589.42 618.339 1575.46 610.002 1563.58 599.108C1561.92 597.588 1561.57 595.128 1562.65 593.16L1578.33 564.739C1579.84 562.015 1583.43 561.315 1585.91 563.201C1597.6 572.111 1609.07 578.816 1620.32 583.316C1633.35 588.416 1645.82 590.966 1657.72 590.966C1668.77 590.966 1677.55 588.983 1684.07 585.016C1690.87 581.049 1694.27 575.099 1694.27 567.165C1694.27 561.782 1692.43 557.673 1688.74 554.84C1685.06 551.723 1679.68 549.031 1672.59 546.764C1665.79 544.498 1657.44 541.947 1647.52 539.114C1631.08 533.73 1617.34 528.488 1606.29 523.388C1595.24 518.288 1586.88 511.913 1581.21 504.262C1575.83 496.329 1573.14 486.27 1573.14 474.086C1573.14 459.352 1576.82 446.743 1584.19 436.259C1591.84 425.492 1602.32 417.133 1615.64 411.183C1629.24 405.233 1645.11 402.257 1663.24 402.257C1679.11 402.257 1694.13 404.808 1708.3 409.908C1721.24 414.31 1733.13 421.316 1743.95 430.926C1745.73 432.512 1746.05 435.163 1744.77 437.179L1726.97 465.202C1725.39 467.688 1722.01 468.27 1719.63 466.535C1709.9 459.436 1700.6 454.161 1691.72 450.71C1681.52 446.46 1671.18 444.334 1660.69 444.334C1654.74 444.334 1649.08 445.043 1643.69 446.46C1638.59 447.876 1634.34 450.285 1630.94 453.685C1627.83 456.802 1626.27 461.335 1626.27 467.286C1626.27 472.669 1627.68 476.919 1630.52 480.036C1633.63 482.87 1638.17 485.42 1644.12 487.686C1650.35 489.953 1657.86 492.503 1666.64 495.337C1684.49 500.437 1699.51 505.679 1711.7 511.063C1724.16 516.446 1733.51 523.105 1739.75 531.039C1745.98 538.689 1749.1 549.314 1749.1 562.915C1749.1 585.016 1741.02 602.3 1724.87 614.768C1708.72 627.235 1687.04 633.468 1659.84 633.468Z" stroke="black" stroke-width="20" mask="url(#path-1-outside-1_335_116)"/>
<path d="M1918.97 613.537C1919.59 615.95 1918.34 618.449 1916.02 619.372C1912.09 620.942 1907.63 622.666 1902.62 624.543C1895.82 627.093 1889.3 628.833 1880.52 630.493C1871.5 632.199 1866.31 633.578 1857.14 633.043C1845.45 632.362 1839.13 630.411 1829.51 623.724C1820.05 617.154 1814.48 611.626 1809.52 601.239C1804.22 590.148 1803.21 570.973 1803.14 569.458C1803.14 569.386 1803.13 569.326 1803.13 569.255V450.285V406.508V339.254C1803.13 336.493 1805.37 334.254 1808.13 334.254H1851.29C1854.05 334.254 1856.29 336.493 1856.29 339.254V401.508C1856.29 404.269 1858.53 406.508 1861.29 406.508H1898.04C1900.81 406.508 1903.04 408.746 1903.04 411.508V445.285C1903.04 448.046 1900.81 450.285 1898.04 450.285H1861.29C1858.53 450.285 1856.29 452.523 1856.29 455.285V559.09C1856.58 566.74 1858.7 572.266 1862.67 575.666C1866.63 579.066 1871.59 580.766 1877.54 580.766C1883.49 580.766 1889.3 579.774 1894.97 577.791C1898.04 576.715 1900.78 575.723 1903.19 574.814C1906.04 573.736 1909.25 575.342 1910 578.297L1918.97 613.537Z" stroke="black" stroke-width="20" mask="url(#path-1-outside-1_335_116)"/>
<path d="M2050.5 633.468C2032.65 633.468 2016.5 630.493 2002.04 624.543C1987.59 618.309 1975.27 609.951 1965.07 599.467C1954.87 588.7 1946.93 576.516 1941.27 562.915C1935.88 549.031 1933.19 534.439 1933.19 519.138C1933.19 497.887 1937.87 478.478 1947.22 460.91C1956.85 443.343 1970.45 429.317 1988.02 418.833C2005.87 408.066 2026.84 402.682 2050.92 402.682C2075.29 402.682 2096.12 408.066 2113.4 418.833C2130.68 429.317 2143.86 443.343 2152.93 460.91C2162.28 478.194 2166.95 496.895 2166.95 517.013C2166.95 520.413 2166.81 523.955 2166.53 527.638C2166.4 529.116 2166.28 530.487 2166.16 531.751C2165.91 534.261 2163.79 536.139 2161.26 536.139H1999.07C1996.11 536.139 1993.78 538.698 1994.28 541.615C1995.81 550.696 1998.82 558.788 2003.32 565.89C2008.99 574.391 2016.07 580.908 2024.57 585.441C2033.35 589.691 2042.7 591.816 2052.62 591.816C2063.96 591.816 2074.58 589.125 2084.5 583.741C2093.15 578.937 2099.45 572.912 2103.41 565.665C2104.63 563.437 2107.17 562.154 2109.62 562.835L2148.48 573.647C2151.47 574.479 2152.99 577.812 2151.47 580.518C2146.3 589.722 2139.41 598.021 2130.83 605.417C2120.91 614.201 2109.15 621.143 2095.55 626.243C2081.95 631.06 2066.93 633.468 2050.5 633.468ZM1992.99 494.535C1992.51 497.453 1994.84 500.012 1997.79 500.012H2103.2C2106.16 500.012 2108.49 497.453 2107.99 494.536C2106.46 485.499 2103.45 477.549 2098.95 470.686C2093.85 462.185 2087.05 455.668 2078.55 451.135C2070.05 446.318 2060.56 443.909 2050.07 443.909C2039.87 443.909 2030.52 446.318 2022.02 451.135C2013.8 455.668 2007 462.185 2001.62 470.686C1997.36 477.548 1994.48 485.498 1992.99 494.535Z" stroke="black" stroke-width="20" mask="url(#path-1-outside-1_335_116)"/>
<circle cx="1931.11" cy="360.884" r="31.6303" fill="#E7B10A" stroke="black" stroke-width="10"/>
<path fill-rule="evenodd" clip-rule="evenodd" d="M963.726 362.031C970.266 367.431 980.326 372.252 1001.72 367.594C1074.94 351.682 1147.14 359.56 1192.62 388.497C1201.84 394.354 1203.64 396.144 1215.74 410.796C1228.24 426.15 1228.89 427.161 1232.82 438.52C1247.17 479.091 1239.86 519.991 1212.55 551.473C1201.63 563.953 1177.55 582.355 1160.4 591.173C1134.89 604.234 1101.65 615.18 1068.44 621.312C964.456 640.679 838.762 627.691 717.734 584.866L699.449 577.135L695.591 557.662C678.228 430.46 691.029 304.747 731.103 206.859C743.849 175.583 761.315 145.264 779.283 122.929C791.4 107.928 814.307 88.0835 828.743 79.9311C865.114 59.5787 906.646 60.7221 943.46 83.0091C953.784 89.168 954.641 90.0115 967.139 105.365C979.029 120.185 980.417 122.311 984.28 132.529C1003.38 182.938 996.438 255.23 965.993 323.696C957.088 343.701 959.766 354.531 963.726 362.031Z" fill="white"/>
<mask id="path-4-outside-2_335_116" maskUnits="userSpaceOnUse" x="697.464" y="44.4409" width="563" height="603" fill="black">
<rect fill="white" x="697.464" y="44.4409" width="563" height="603"/>
<path fill-rule="evenodd" clip-rule="evenodd" d="M1001.72 367.593C980.327 372.251 970.267 367.431 963.727 362.031C959.767 354.531 957.089 343.701 965.994 323.695C996.439 255.23 1003.38 182.938 984.281 132.529C980.418 122.31 979.031 120.185 967.14 105.365C954.643 90.0113 953.785 89.1678 943.461 83.0089C906.648 60.7219 865.115 59.5785 828.745 79.9308C814.309 88.0833 791.401 107.928 779.285 122.929C761.316 145.264 743.851 175.583 731.104 206.858C727.312 216.12 723.765 225.631 720.464 235.369C825.656 401.979 896.792 488.852 1038.49 625.927C1048.65 624.675 1058.64 623.137 1068.44 621.312C1101.65 615.18 1134.89 604.233 1160.41 591.173C1177.55 582.354 1201.64 563.953 1212.55 551.472C1239.86 519.991 1247.17 479.091 1232.82 438.52C1228.89 427.161 1228.24 426.149 1215.74 410.796C1203.64 396.144 1201.84 394.354 1192.62 388.497C1147.14 359.559 1074.94 351.682 1001.72 367.593Z"/>
</mask>
<path fill-rule="evenodd" clip-rule="evenodd" d="M1001.72 367.593C980.327 372.251 970.267 367.431 963.727 362.031C959.767 354.531 957.089 343.701 965.994 323.695C996.439 255.23 1003.38 182.938 984.281 132.529C980.418 122.31 979.031 120.185 967.14 105.365C954.643 90.0113 953.785 89.1678 943.461 83.0089C906.648 60.7219 865.115 59.5785 828.745 79.9308C814.309 88.0833 791.401 107.928 779.285 122.929C761.316 145.264 743.851 175.583 731.104 206.858C727.312 216.12 723.765 225.631 720.464 235.369C825.656 401.979 896.792 488.852 1038.49 625.927C1048.65 624.675 1058.64 623.137 1068.44 621.312C1101.65 615.18 1134.89 604.233 1160.41 591.173C1177.55 582.354 1201.64 563.953 1212.55 551.472C1239.86 519.991 1247.17 479.091 1232.82 438.52C1228.89 427.161 1228.24 426.149 1215.74 410.796C1203.64 396.144 1201.84 394.354 1192.62 388.497C1147.14 359.559 1074.94 351.682 1001.72 367.593Z" fill="#E7B10A"/>
<path d="M954.885 366.7C957.464 371.584 963.513 373.452 968.397 370.873C973.281 368.294 975.149 362.245 972.57 357.361L954.885 366.7ZM964.458 327.34L955.164 323.65L955.164 323.65L964.458 327.34ZM975.13 327.762C977.376 322.717 975.107 316.806 970.061 314.56C965.015 312.314 959.105 314.583 956.859 319.629L975.13 327.762ZM972.57 357.361C971.235 354.832 970.212 352.036 970.056 348.272C969.895 344.403 970.627 338.9 973.752 331.031L955.164 323.65C951.26 333.482 949.77 341.809 950.073 349.102C950.38 356.5 952.507 362.198 954.885 366.7L972.57 357.361ZM973.752 331.031C974.168 329.982 974.627 328.893 975.13 327.762L956.859 319.629C956.249 320.998 955.685 322.338 955.164 323.65L973.752 331.031ZM963.727 362.031L946.042 371.37L947.909 374.906L950.992 377.452L963.727 362.031ZM1001.72 367.593L997.477 348.049L997.47 348.051L1001.72 367.593ZM965.994 323.695L984.266 331.828L984.269 331.822L965.994 323.695ZM984.281 132.529L965.573 139.601L965.576 139.608L965.579 139.616L984.281 132.529ZM967.14 105.365L982.739 92.8488L982.695 92.7942L982.651 92.74L967.14 105.365ZM943.461 83.0089L933.103 100.118L933.159 100.151L933.214 100.185L943.461 83.0089ZM828.745 79.9308L818.978 62.4776L818.944 62.4967L818.91 62.5159L828.745 79.9308ZM779.285 122.929L763.726 110.363L763.714 110.377L763.702 110.392L779.285 122.929ZM731.104 206.858L749.613 214.436L749.619 214.421L749.625 214.407L731.104 206.858ZM720.464 235.369L701.523 228.948L698.461 237.981L703.552 246.046L720.464 235.369ZM1038.49 625.927L1024.58 640.302L1031.45 646.946L1040.93 645.777L1038.49 625.927ZM1068.44 621.312L1064.81 601.644L1064.8 601.647L1064.78 601.65L1068.44 621.312ZM1160.41 591.173L1169.52 608.977L1169.53 608.968L1169.55 608.959L1160.41 591.173ZM1212.55 551.472L1227.61 564.638L1227.63 564.608L1227.66 564.579L1212.55 551.472ZM1232.82 438.52L1213.93 445.066L1213.95 445.127L1213.97 445.189L1232.82 438.52ZM1215.74 410.796L1231.25 398.17L1231.21 398.116L1231.16 398.062L1215.74 410.796ZM1192.62 388.497L1181.89 405.371L1181.89 405.375L1181.9 405.379L1192.62 388.497ZM950.992 377.452C956.135 381.699 963.123 386.014 972.931 388.133C982.442 390.188 993.297 389.896 1005.98 387.136L997.47 348.051C988.755 349.948 983.881 349.576 981.378 349.035C979.171 348.558 977.859 347.762 976.462 346.609L950.992 377.452ZM947.723 315.562C942.445 327.42 939.956 337.989 940.037 347.72C940.121 357.753 942.927 365.471 946.042 371.37L981.413 352.691C980.567 351.09 980.054 349.644 980.036 347.386C980.014 344.825 980.639 339.977 984.266 331.828L947.723 315.562ZM965.579 139.616C982.181 183.429 976.876 250.001 947.72 315.569L984.269 331.822C1016 260.459 1024.58 182.446 1002.98 125.442L965.579 139.616ZM951.54 117.882C957.687 125.542 960.225 128.845 961.819 131.365C963.03 133.278 963.773 134.84 965.573 139.601L1002.99 125.456C1000.93 119.999 999.044 115.389 995.623 109.98C992.585 105.178 988.484 100.008 982.739 92.8488L951.54 117.882ZM933.214 100.185C938.411 103.285 939.455 104.052 940.745 105.271C942.642 107.065 945.043 109.9 951.628 117.991L982.651 92.74C976.739 85.4763 972.463 80.2128 968.226 76.2065C963.381 71.6255 958.835 68.8919 953.708 65.8331L933.214 100.185ZM838.511 97.3841C868.336 80.6946 902.184 81.3989 933.103 100.118L953.819 65.9C911.112 40.0448 861.895 38.4624 818.978 62.4776L838.511 97.3841ZM794.844 135.496C805.592 122.188 826.622 104.098 838.579 97.3457L818.91 62.5159C801.995 72.0683 777.21 93.6674 763.726 110.363L794.844 135.496ZM749.625 214.407C761.752 184.65 778.29 156.072 794.868 135.466L763.702 110.392C744.343 134.455 725.949 166.515 712.583 199.31L749.625 214.407ZM739.405 241.79C742.579 232.428 745.983 223.303 749.613 214.436L712.595 199.281C708.642 208.937 704.951 218.835 701.523 228.948L739.405 241.79ZM1052.39 611.553C911.817 475.561 841.698 389.924 737.375 224.692L703.552 246.046C809.614 414.034 881.766 502.143 1024.58 640.302L1052.39 611.553ZM1064.78 601.65C1055.4 603.397 1045.81 604.873 1036.04 606.077L1040.93 645.777C1051.49 644.476 1061.89 642.877 1072.1 640.974L1064.78 601.65ZM1151.29 573.369C1127.75 585.419 1096.41 595.81 1064.81 601.644L1072.07 640.979C1106.9 634.55 1142.03 623.048 1169.52 608.977L1151.29 573.369ZM1197.49 538.307C1188.45 548.644 1166.47 565.564 1151.26 573.387L1169.55 608.959C1188.64 599.145 1214.82 579.261 1227.61 564.638L1197.49 538.307ZM1213.97 445.189C1226.02 479.265 1219.84 512.55 1197.44 538.366L1227.66 564.579C1259.88 527.431 1268.33 478.918 1251.68 431.851L1213.97 445.189ZM1200.23 423.421C1206.81 431.511 1209.1 434.438 1210.47 436.66C1211.41 438.17 1211.95 439.349 1213.93 445.066L1251.72 431.973C1249.77 426.332 1248.01 421.325 1244.51 415.651C1241.45 410.689 1237.16 405.434 1231.25 398.17L1200.23 423.421ZM1181.9 405.379C1186.2 408.108 1187.57 409.153 1189.2 410.727C1191.35 412.8 1194.07 415.956 1200.32 423.529L1231.16 398.062C1225.32 390.984 1221.09 385.919 1217 381.969C1212.4 377.52 1208.27 374.742 1203.35 371.614L1181.9 405.379ZM1005.97 387.137C1076.09 371.899 1142.36 380.22 1181.89 405.371L1203.36 371.623C1151.93 338.899 1073.8 331.465 997.477 348.049L1005.97 387.137Z" fill="black" mask="url(#path-4-outside-2_335_116)"/>
<path fill-rule="evenodd" clip-rule="evenodd" d="M708.086 619.104C679.094 608.952 674.968 606.829 670.702 600.536C665.406 595.082 664.165 590.61 660.11 560.161C644.577 445.059 653.157 329.321 683.766 233.265C692.428 247.154 700.86 260.515 709.115 273.413C686.929 358.733 681.954 457.738 695.594 557.662L699.452 577.135L717.737 584.866C812.879 618.532 910.904 633.758 999.001 629.323C1009.93 640.021 1021.28 650.99 1033.09 662.293C932.793 672.787 817.678 657.695 708.086 619.104ZM1045.99 660.791C1053.14 659.874 1060.2 658.823 1067.17 657.637C1111.48 650.187 1151.78 636.566 1186.22 617.62C1200.34 609.72 1229.76 586.293 1239.11 575.257C1271.94 536.881 1282.68 491.139 1270.43 441.149C1265.46 420.523 1260.18 409.404 1247.13 392.104C1238.06 380.124 1234.48 376.357 1225.24 368.799C1204.52 351.75 1174.21 337.875 1143 330.896C1107.18 322.878 1054.57 322.014 1015.74 328.609C1011.03 329.537 1004.92 329.047 1004.73 328.664L1004.73 328.66L1004.72 328.658C1004.38 328.396 1005.15 322.314 1007.01 317.892C1021.35 281.208 1031.19 229.517 1030.61 192.814C1030.11 160.841 1022.68 128.345 1010.19 104.587C1004.67 94.0094 1001.7 89.739 991.815 78.4302C977.525 62.1368 967.71 54.7079 948.522 45.6564C902.06 23.5131 855.09 24.7397 810.848 49.1012C798.144 56.0147 769.234 80.06 758.629 92.2888C733.088 122.157 711.568 158.861 695.279 200.728C692.691 207.345 690.218 214.077 687.86 220.918C696.338 234.565 704.591 247.703 712.666 260.39C717.975 241.795 724.127 223.905 731.105 206.859C743.852 175.583 761.318 145.264 779.286 122.93C791.402 107.928 814.31 88.0837 828.746 79.9312C865.117 59.5788 906.649 60.7222 943.462 83.0093C953.786 89.1681 954.644 90.0117 967.141 105.366C979.032 120.185 980.42 122.311 984.282 132.529C1003.38 182.938 996.44 255.231 965.996 323.696C957.091 343.702 959.768 354.531 963.729 362.031C970.268 367.431 980.329 372.252 1001.73 367.594C1074.95 351.682 1147.14 359.56 1192.62 388.497C1201.85 394.354 1203.65 396.144 1215.74 410.796C1228.24 426.15 1228.89 427.161 1232.83 438.52C1247.18 479.092 1239.86 519.991 1212.55 551.473C1201.64 563.953 1177.56 582.355 1160.41 591.173C1134.89 604.234 1101.66 615.18 1068.44 621.312C1050.39 624.675 1031.68 627.062 1012.46 628.487C1023.22 638.966 1034.38 649.715 1045.99 660.791Z" fill="black"/>
<path d="M682.872 478.047L713.253 430.709C714.584 428.636 717.707 428.961 718.582 431.264L727.771 455.443C728.442 457.209 730.559 457.923 732.162 456.924L743.238 450.021C744.675 449.125 746.569 449.596 747.419 451.061L761.494 475.309C762.358 476.797 764.292 477.255 765.731 476.314L814.658 444.3C815.714 443.609 817.09 443.653 818.1 444.41L913.006 515.562" stroke="black" stroke-width="10"/>
<path d="M792.998 472.076C787.237 476.175 783.741 482.966 782.329 488.39C781.841 490.267 779.41 491.385 777.757 490.371C774.665 488.472 770.241 486.198 766.516 485.99C761.729 485.722 755.942 488.748 752.085 491.205C750.365 492.302 750.962 494.773 752.966 495.155C759.315 496.365 764.034 497.513 768.158 498.926C770.598 499.763 769.705 503.552 767.157 503.95C764.521 504.361 761.914 505.089 759.933 506.337C754.461 509.787 751.702 518.519 750.426 524.349C749.974 526.414 752.274 527.72 753.941 526.421C758.568 522.813 762.285 520.149 765.862 517.903C768.098 516.498 770.813 519.807 769.51 522.103C768.135 524.528 767.024 527.109 766.666 529.528C765.87 534.896 768.456 541.647 770.857 546.506C771.876 548.568 774.696 547.859 774.884 545.566C775.912 532.968 778.183 526.021 782.792 518.415C783.751 516.832 786.06 517.018 786.798 518.715C796.241 540.449 798.229 557.678 798.834 577.865C798.886 579.6 800.712 580.711 802.269 579.945L810.432 575.931C811.364 575.472 811.89 574.453 811.726 573.428C807.946 549.741 803.848 536.625 795.108 514.852C794.374 513.023 796.04 511.18 797.877 511.893C804.672 514.532 811.185 518.842 820.878 525.95C822.558 527.182 824.789 525.84 824.326 523.809C822.95 517.774 819.922 508.433 813.944 505.14C812.587 504.393 810.95 503.886 809.231 503.549C806.657 503.043 805.611 498.769 808.062 497.834C811.825 496.398 815.794 495.309 820.89 494.408C823.045 494.027 823.616 491.328 821.664 490.338C816.725 487.834 809.399 484.987 803.92 486.588C799.196 487.968 797.684 490.251 794.503 493.477C793.113 494.886 791.148 493.873 791.701 491.973C793.341 486.33 797.259 478.884 801.068 472.995C802.301 471.09 800.548 468.526 798.429 469.337C796.506 470.072 794.521 470.992 792.998 472.076Z" fill="black" stroke="black" stroke-width="3"/>
<path d="M844.892 512.812C835.199 534.259 818.531 559.648 801.696 582.028C800.409 583.739 801.658 586.191 803.799 586.143L835.015 585.44C836.114 585.415 837.075 584.685 837.4 583.635C840.106 574.912 842.242 568.591 844.081 560.638C844.742 557.779 849.755 557.732 850.458 560.581C852.403 568.453 854.666 575.152 857.6 584.151C857.943 585.202 858.924 585.917 860.029 585.917H890.167C892.301 585.917 893.496 583.449 892.192 581.76C873.767 557.91 858.676 533.213 849.886 512.854C848.968 510.728 845.846 510.702 844.892 512.812Z" fill="black" stroke="black" stroke-width="3"/>
<path fill-rule="evenodd" clip-rule="evenodd" d="M950.253 398.747C935.154 402.034 928.055 398.633 923.44 394.822C920.645 389.529 918.756 381.887 925.04 367.77C946.524 319.456 951.423 268.442 937.944 232.87C935.218 225.659 934.239 224.159 925.848 213.702C917.029 202.867 916.424 202.272 909.139 197.926C883.161 182.198 853.853 181.392 828.187 195.754C818 201.507 801.835 215.51 793.285 226.096C780.605 241.857 768.281 263.252 759.286 285.322C758.424 287.427 757.58 289.55 756.754 291.692C831.87 405.599 894.438 482.18 990.762 578.944C992.966 578.579 995.157 578.193 997.334 577.788C1020.77 573.461 1044.22 565.736 1062.23 556.52C1074.33 550.297 1091.32 537.311 1099.03 528.504C1118.3 506.289 1123.46 477.428 1113.33 448.798C1110.56 440.782 1110.1 440.068 1101.28 429.234C1092.74 418.894 1091.47 417.631 1084.96 413.498C1052.87 393.078 1001.92 387.519 950.253 398.747Z" fill="black"/>
<path d="M255.951 388.024L256.023 388.047L256.096 388.067C269.146 391.655 280.269 397.163 289.557 404.529L292.409 406.79L295.437 404.771C305.271 398.216 316.291 392.78 328.522 388.481C340.799 384.283 355.71 382.117 373.362 382.117C385.857 382.117 398.005 383.76 409.819 387.042L409.836 387.046L409.853 387.051C421.853 390.294 432.301 395.455 441.267 402.5L441.344 402.56L441.424 402.618C450.542 409.221 457.86 418.233 463.33 429.816L463.341 429.841L463.353 429.865C468.725 440.925 471.534 454.771 471.534 471.605V628.595C468.555 629.239 464.572 629.912 459.514 630.602L459.498 630.604L459.483 630.606C452.585 631.592 445.331 632.088 437.717 632.088C430.457 632.088 423.935 631.594 418.132 630.628C413.01 629.721 408.839 627.95 405.475 625.427C402.157 622.939 399.447 619.587 397.385 615.232C395.668 610.56 394.706 604.289 394.706 596.228V474.159C394.706 463.086 391.553 453.997 384.133 448.28C377.208 442.61 368.157 440.046 357.529 440.046C351.963 440.046 346.211 441.428 340.326 443.987C334.671 446.118 329.999 448.573 326.656 451.498L324.357 453.51L325.098 456.474C325.342 457.452 325.459 458.407 325.459 459.347V459.353V459.359V459.365V459.371V459.377V459.383V459.389V459.395V459.401V459.407V459.413V459.419V459.425V459.431V459.437V459.443V459.449V459.455V459.461V459.467V459.473V459.479V459.485V459.491V459.497V459.503V459.509V459.515V459.521V459.527V459.533V459.539V459.545V459.551V459.557V459.563V459.569V459.575V459.581V459.587V459.593V459.599V459.605V459.611V459.617V459.623V459.629V459.635V459.641V459.647V459.653V459.659V459.664V459.67V459.676V459.682V459.688V459.694V459.7V459.706V459.712V459.718V459.724V459.73V459.736V459.742V459.748V459.754V459.76V459.766V459.772V459.778V459.784V459.79V459.796V459.802V459.808V459.814V459.82V459.826V459.832V459.838V459.844V459.85V459.856V459.862V459.868V459.874V459.88V459.886V459.892V459.898V459.904V459.91V459.916V459.922V459.928V459.934V459.94V459.946V459.952V459.958V459.964V459.97V459.976V459.982V459.988V459.994V460V460.006V460.012V460.018V460.024V460.03V460.036V460.042V460.048V460.054V460.06V460.066V460.072V460.077V460.083V460.089V460.095V460.101V460.107V460.113V460.119V460.125V460.131V460.137V460.143V460.149V460.155V460.161V460.167V460.173V460.179V460.185V460.191V460.197V460.203V460.209V460.215V460.221V460.227V460.233V460.239V460.245V460.251V460.257V460.263V460.269V460.275V460.281V460.287V460.293V460.299V460.305V460.311V460.317V460.323V460.329V460.335V460.341V460.347V460.353V460.359V460.365V460.371V460.377V460.383V460.389V460.395V460.401V460.407V460.413V460.419V460.425V460.431V460.437V460.443V460.449V460.455V460.461V460.467V460.473V460.479V460.484V460.49V460.496V460.502V460.508V460.514V460.52V460.526V460.532V460.538V460.544V460.55V460.556V460.562V460.568V460.574V460.58V460.586V460.592V460.598V460.604V460.61V460.616V460.622V460.628V460.634V460.64V460.646V460.652V460.658V460.664V460.67V460.676V460.682V460.688V460.694V460.7V460.706V460.712V460.718V460.724V460.73V460.736V460.742V460.748V460.754V460.76V460.766V460.772V460.778V460.784V460.79V460.796V460.802V460.808V460.814V460.82V460.826V460.832V460.838V460.844V460.85V460.856V460.862V460.868V460.874V460.88V460.885V460.891V460.897V460.903V460.909V460.915V460.921V460.927V460.933V460.939V460.945V460.951V460.957V460.963V460.969V460.975V460.981V460.987V460.993V460.999V461.005V461.011V461.017V461.023V461.029V461.035V461.041V461.047V461.053V461.059V461.065V461.071V461.077V461.083V461.089V461.095V461.101V461.107V461.113V461.119V461.125V461.131V461.137V461.143V461.149V461.155V461.161V461.167V461.173V461.179V461.185V461.191V461.197V461.203V461.209V461.215V461.221V461.227V461.233V461.239V461.245V461.251V461.257V461.263V461.269V461.275V461.281V461.287V461.292V461.298V461.304V461.31V461.316V461.322V461.328V461.334V461.34V461.346V461.352V461.358V461.364V461.37V461.376V461.382V461.388V461.394V461.4V461.406V461.412V461.418V461.424V461.43V461.436V461.442V461.448V461.454V461.46V461.466V461.472V461.478V461.484V461.49V461.496V461.502V461.508V461.514V461.52V461.526V461.532V461.538V461.544V461.55V461.556V461.562V461.568V461.574V461.58V461.586V461.592V461.598V461.604V461.61V461.616V461.622V461.628V461.634V461.64V461.646V461.652V461.658V461.664V461.67V461.676V461.682V461.688V461.694V461.7V461.705V461.711V461.717V461.723V461.729V461.735V461.741V461.747V461.753V461.759V461.765V461.771V461.777V461.783V461.789V461.795V461.801V461.807V461.813V461.819V461.825V461.831V461.837V461.843V461.849V461.855V461.861V461.867V461.873V461.879V461.885V461.891V461.897V461.903V461.909V461.915V461.921V461.927V461.933V461.939V461.945V461.951V461.957V461.963V461.969V461.975V461.981V461.987V461.993V461.999V462.005V462.011V462.017V462.023V462.029V462.035V462.041V462.047V462.053V462.059V462.065V462.071V462.077V462.083V462.089V462.095V462.101V462.107V462.112V462.118V462.124V462.13V462.136V462.142V462.148V462.154V462.16V462.166V462.172V462.178V462.184V462.19V462.196V462.202V462.208V462.214V462.22V462.226V462.232V462.238V462.244V462.25V462.256V462.262V462.268V462.274V462.28V462.286V462.292V462.298V462.304V462.31V462.316V462.322V462.328V462.334V462.34V462.346V462.352V462.358V462.364V462.37V462.376V462.382V462.388V462.394V462.4V462.406V462.412V628.538C322.253 629.207 318.092 629.898 312.929 630.602L312.913 630.604L312.897 630.606C305.989 631.593 298.905 632.088 291.642 632.088C284.382 632.088 277.861 631.594 272.058 630.628C266.936 629.721 262.765 627.95 259.4 625.427C256.083 622.939 253.373 619.587 251.31 615.232C249.594 610.56 248.632 604.289 248.632 596.228V474.159C248.632 462.908 245.023 453.799 236.878 448.158C229.774 442.677 221.201 440.046 211.454 440.046C204.847 440.046 198.873 441.136 193.679 443.501C189.167 445.242 185.246 447.02 181.956 448.847L179.385 450.276V453.218V628.595C176.406 629.239 172.423 629.912 167.365 630.602L167.349 630.604L167.334 630.606C160.436 631.592 153.182 632.088 145.568 632.088C138.308 632.088 131.786 631.594 125.983 630.628C120.861 629.721 116.69 627.95 113.326 625.427C110.008 622.939 107.298 619.587 105.236 615.232C103.519 610.56 102.557 604.289 102.557 596.228V441.982C102.557 433.471 104.285 427.277 107.239 422.935C110.941 418.021 115.955 413.295 122.387 408.793L122.395 408.788L122.403 408.782C133.44 400.991 147.218 394.56 163.846 389.571C180.733 384.605 198.3 382.117 216.562 382.117C230.026 382.117 243.151 384.086 255.951 388.024ZM605.573 286.604L605.607 286.639L605.641 286.674C613.522 294.555 617.456 304.164 617.456 315.826C617.456 327.489 613.522 337.098 605.641 344.979L605.607 345.014L605.573 345.049C598.159 352.759 588.141 356.794 574.957 356.794C561.797 356.794 551.572 352.771 543.796 345.014C536.253 337.152 532.457 327.532 532.457 315.826C532.457 304.121 536.253 294.501 543.796 286.639C551.571 278.882 561.796 274.859 574.957 274.859C588.141 274.859 598.159 278.894 605.573 286.604ZM600.84 630.091L600.71 630.109L600.58 630.134C593.747 631.435 586.74 632.088 579.553 632.088C572.294 632.088 565.772 631.594 559.969 630.628C554.847 629.721 550.676 627.95 547.312 625.427C543.994 622.939 541.284 619.587 539.222 615.232C537.505 610.56 536.543 604.289 536.543 596.228V392.569C539.766 392.043 543.779 391.437 548.594 390.749L548.688 390.736L548.781 390.719C555.982 389.409 563.174 388.756 570.36 388.756C577.635 388.756 583.974 389.253 589.41 390.212L589.434 390.217L589.457 390.22C594.965 391.138 599.281 392.927 602.602 395.418C605.822 397.833 608.358 401.259 610.114 405.942L610.182 406.124L610.264 406.301C612.222 410.496 613.37 416.495 613.37 424.616V628.267C610.077 628.792 605.905 629.4 600.84 630.091Z" fill="#E7B10A" stroke="black" stroke-width="10"/>
</g>
<defs>
<clipPath id="clip0_335_116">
<rect width="2249" height="696" fill="white"/>
</clipPath>
</defs>
</svg>
